<?xml version="1.0" encoding="UTF-8"?>
<svg version="1.1" xmlns="http://www.w3.org/2000/svg" width="851" height="315">
<path d="M0 0 C280.83 0 561.66 0 851 0 C851 103.95 851 207.9 851 315 C570.17 315 289.34 315 0 315 C0 211.05 0 107.1 0 0 Z " fill="#FEFEFE" transform="translate(0,0)"/>
<path d="M0 0 C5.72443597 1.37421475 11.25091438 3.65762157 14.5546875 8.61328125 C14.78173828 11.6159668 14.78173828 11.6159668 14.75 15.25 C14.74355469 16.54873047 14.73710938 17.84746094 14.73046875 19.18554688 C14.7137581 20.55729432 14.69682821 21.92903911 14.6796875 23.30078125 C14.66965424 24.68423843 14.66052899 26.06770252 14.65234375 27.45117188 C14.62873717 30.83871577 14.59580787 34.22591197 14.5546875 37.61328125 C17.94100303 34.44340938 19.83320044 30.86372866 21.9921875 26.80078125 C22.39252197 26.05046631 22.79285645 25.30015137 23.20532227 24.52709961 C26.27928875 18.56975633 28.24807789 12.80679319 29.80078125 6.2734375 C30.5546875 3.61328125 30.5546875 3.61328125 32.5546875 1.61328125 C39.48223254 1.97160255 46.02314156 3.08173531 51.0546875 8.11328125 C53.44918796 13.70044898 53.50849713 19.0663017 51.9296875 24.9375 C48.8297959 32.6457126 43.51414805 39.60469113 37.77734375 45.546875 C37.31473145 46.02914551 36.85211914 46.51141602 36.37548828 47.00830078 C35.05659371 48.35978364 33.71052646 49.68458949 32.36328125 51.0078125 C30.27490808 53.49762922 30.27490808 53.49762922 30.515625 56.62890625 C31.72346798 60.09804926 33.19461113 61.91785894 35.7421875 64.55078125 C36.95261719 65.83275391 36.95261719 65.83275391 38.1875 67.140625 C38.96867187 67.95660156 39.74984375 68.77257812 40.5546875 69.61328125 C46.5546875 76.23271445 46.5546875 76.23271445 46.5546875 78.61328125 C47.13734375 78.85691406 47.72 79.10054688 48.3203125 79.3515625 C52.50118368 81.71243906 55.08298219 85.57415306 57.5546875 89.61328125 C58.99321667 95.58871012 56.2414896 99.99959551 53.265625 105.078125 C50.39008344 109.33891603 47.87066623 111.99568692 42.7421875 113.36328125 C31.93490512 110.82039128 25.2554605 99.38299709 19.5546875 90.61328125 C18.17291748 88.30272582 16.85756077 85.96999374 15.5546875 83.61328125 C13.26870733 85.89926142 13.06024007 86.98175016 12.37109375 90.078125 C12.16548828 90.96048828 11.95988281 91.84285156 11.74804688 92.75195312 C11.32850022 94.61328548 10.91181844 96.47526597 10.49804688 98.33789062 C10.18770508 99.66336914 10.18770508 99.66336914 9.87109375 101.015625 C9.69006104 101.82507568 9.50902832 102.63452637 9.32250977 103.46850586 C8.45307291 105.8971236 7.5767154 107.03081111 5.5546875 108.61328125 C0.92501637 109.4149559 -4.16149355 109.67036317 -8.49609375 107.6640625 C-11.67758575 105.16149931 -13.5572524 102.5207457 -14.4453125 98.61328125 C-14.9159295 92.8717538 -14.17321804 87.91771599 -13.03125 82.27734375 C-11.45261632 74.1602499 -10.47695602 66.03906008 -9.7578125 57.80078125 C-9.69460815 57.09893707 -9.63140381 56.3970929 -9.56628418 55.67398071 C-7.96558667 37.63310344 -7.72062327 19.65633825 -9.4453125 1.61328125 C-5.73702261 -0.85891201 -4.2504293 -0.5783371 0 0 Z " fill="#555555" transform="translate(18.4453125,98.38671875)"/>
<path d="M0 0 C2.16035656 1.18945005 3.95417258 2.34835334 5.79296875 3.984375 C6.34984375 4.45617187 6.90671875 4.92796875 7.48046875 5.4140625 C9.41008997 7.72271646 9.26079361 10.01131678 9.1484375 12.921875 C8.4410124 17.02649538 6.02749529 19.73792067 3.17578125 22.6171875 C-0.27301933 24.5960075 -3.70483809 24.47692564 -7.58203125 24.546875 C-12.85380648 24.67043223 -17.22440271 25.01505039 -22.20703125 26.984375 C-22.0257331 30.42230839 -22.0257331 30.42230839 -21.20703125 33.984375 C-18.25924343 36.01223815 -15.39445797 36.32774451 -11.89453125 36.734375 C-6.71790036 37.53567167 -2.11238781 38.93344904 2.73046875 40.859375 C3.66983276 41.22627441 3.66983276 41.22627441 4.62817383 41.60058594 C11.44988416 44.41982294 15.98049015 48.38240477 19.61328125 54.75390625 C23.34181338 64.96415814 21.56211921 76.71647467 17.203125 86.41796875 C15.4261358 89.65199065 13.7211204 91.72171236 10.79296875 93.984375 C10.16777344 94.52191406 9.54257812 95.05945313 8.8984375 95.61328125 C-0.62132607 103.55499392 -9.1457918 107.89336079 -21.73828125 107.3046875 C-32.00791515 106.35636545 -42.39136153 103.23734451 -49.95703125 95.796875 C-52.83193874 91.97784108 -52.92725472 88.18115035 -52.68359375 83.51953125 C-52.05273218 80.16355452 -50.71961702 78.26140586 -48.20703125 75.984375 C-42.20703125 77.984375 -42.20703125 77.984375 -40.4375 78.78515625 C-31.94744182 82.31849407 -21.02438239 82.43314061 -12.1484375 80.22265625 C-8.32151794 78.63281939 -4.98401697 76.89374359 -3.20703125 72.984375 C-2.95578299 70.31675736 -2.95578299 70.31675736 -3.20703125 67.984375 C-7.94592766 65.3458412 -12.34069129 64.12943267 -17.58203125 63.046875 C-29.01042614 60.47551651 -38.59116699 56.21423013 -45.5078125 46.078125 C-48.89794511 38.49451081 -48.1529873 28.94355242 -45.64453125 21.234375 C-41.71815067 11.76973129 -35.10075772 4.64587807 -26.07421875 -0.1484375 C-18.30197086 -2.49917188 -7.72060741 -2.44501575 0 0 Z " fill="#565656" transform="translate(350.20703125,100.015625)"/>
<path d="M0 0 C3.67667512 0.03155944 5.92605962 0.29006312 8.8125 2.625 C12.25591252 6.41275377 13.56768689 8.93098566 13.53955078 14.05175781 C13.53939972 14.97241028 13.53924866 15.89306274 13.53909302 16.84161377 C13.52877045 17.82716248 13.51844788 18.81271118 13.5078125 19.828125 C13.5049826 20.84348328 13.50215271 21.85884155 13.49923706 22.90496826 C13.48805001 26.14509916 13.46294791 29.38495276 13.4375 32.625 C13.4274683 34.82291267 13.41834278 37.02082968 13.41015625 39.21875 C13.38811551 44.60426114 13.35465251 49.98961076 13.3125 55.375 C18.26579239 50.48319262 21.64557945 46.27873821 23.4375 39.5 C23.72625 38.46875 24.015 37.4375 24.3125 36.375 C27.26125877 34.90062061 29.00429497 35.01410491 32.3125 35.375 C37.25901867 37.48528954 41.44354135 39.69597279 44.3125 44.375 C44.60225274 51.47394222 40.48561794 56.90545388 36.3125 62.375 C33.92876875 64.82204911 31.50184475 67.14588908 28.9375 69.40234375 C27.07519392 71.21501297 27.07519392 71.21501297 27.40234375 73.4375 C31.48398006 82.1263052 43.29244529 88.59478913 51.3125 93.375 C52.3025 93.705 53.2925 94.035 54.3125 94.375 C53.80820318 98.980911 52.71169017 101.81723199 50 105.5625 C49.40574219 106.40167969 48.81148437 107.24085938 48.19921875 108.10546875 C45.14787496 111.77592578 43.35521669 113.23597111 38.5625 113.875 C31.00073355 113.51158793 26.37292137 108.65063555 21.5 103.3125 C19.44539126 100.95242731 17.485554 98.61909287 15.67578125 96.06640625 C15.22589844 95.50824219 14.77601563 94.95007813 14.3125 94.375 C13.6525 94.375 12.9925 94.375 12.3125 94.375 C12.16554687 95.02726562 12.01859375 95.67953125 11.8671875 96.3515625 C10.28663503 102.51026694 8.51339542 106.57689062 3.3125 110.375 C0.09085221 112.27494613 -1.53261654 112.38034081 -5.3125 112.25 C-8.6875 111.375 -8.6875 111.375 -10.38110352 109.72070312 C-14.78503347 101.81321687 -11.25683019 88.54411691 -10.25 79.875 C-8.31227107 61.78431803 -8.20737965 43.66223817 -8.06665039 25.48242188 C-8.0545755 24.3316214 -8.04250061 23.18082092 -8.03005981 21.99514771 C-8.00798721 19.82031222 -7.99415768 17.6453719 -7.98995972 15.47042847 C-7.8302737 0.30431557 -7.8302737 0.30431557 0 0 Z " fill="#555555" transform="translate(132.6875,93.625)"/>
<path d="M0 0 C0.83144531 0.05542969 1.66289063 0.11085938 2.51953125 0.16796875 C6.41034019 1.10791527 8.24287064 2.00514472 11.1875 4.8125 C12.06040577 8.94558789 11.88362925 13.02702091 11.7734375 17.234375 C11.76494781 18.44949768 11.75645813 19.66462036 11.74771118 20.91656494 C11.71411169 24.79944333 11.63881079 28.68024879 11.5625 32.5625 C11.5324093 35.19398044 11.50503195 37.82549341 11.48046875 40.45703125 C11.41429826 46.909562 11.31388055 53.36088293 11.1875 59.8125 C12.8375 60.1425 14.4875 60.4725 16.1875 60.8125 C15.60015804 66.56845118 15.00245773 72.388339 10.38671875 76.36328125 C6.61127958 78.88735075 3.84292418 80.51479572 -0.8125 79.8125 C-3.05078125 78.0625 -3.05078125 78.0625 -5.125 75.8125 C-5.82238281 75.07 -6.51976562 74.3275 -7.23828125 73.5625 C-8.01751953 72.69625 -8.01751953 72.69625 -8.8125 71.8125 C-9.69550781 72.3178125 -10.57851563 72.823125 -11.48828125 73.34375 C-20.55999075 78.33490474 -27.26758308 80.52919952 -37.625 77.8125 C-43.92185582 73.86153164 -48.62403913 66.72315429 -50.375 59.48828125 C-51.61246191 51.91987579 -50.91472581 44.53142627 -49.390625 37.07421875 C-48.62500198 32.75465641 -48.14782 28.42384401 -47.6875 24.0625 C-47.60000488 23.25804443 -47.51250977 22.45358887 -47.42236328 21.62475586 C-46.76766748 15.2602433 -46.28998784 9.09286264 -47.8125 2.8125 C-44.46799184 0.58282789 -43.02173654 0.61258879 -39.13842773 1.18774414 C-36.38478838 1.92738549 -34.06640328 3.06255 -31.53515625 4.37109375 C-30.64707275 4.82669678 -29.75898926 5.2822998 -28.84399414 5.75170898 C-28.17360107 6.10177002 -27.50320801 6.45183105 -26.8125 6.8125 C-26.81583092 7.68906754 -26.81583092 7.68906754 -26.81922913 8.58334351 C-26.84130388 14.64995718 -26.8564158 20.71655949 -26.86743164 26.78320312 C-26.87246926 29.04915836 -26.87929952 31.31511033 -26.88793945 33.58105469 C-26.90002996 36.83269047 -26.90573392 40.08428339 -26.91015625 43.3359375 C-26.91531754 44.35368256 -26.92047882 45.37142761 -26.92579651 46.42001343 C-26.92587204 47.36083771 -26.92594757 48.30166199 -26.92602539 49.27099609 C-26.92935631 50.51675919 -26.92935631 50.51675919 -26.93275452 51.78768921 C-26.94159182 53.88214964 -26.94159182 53.88214964 -25.8125 55.8125 C-24.3275 56.3075 -24.3275 56.3075 -22.8125 56.8125 C-22.5340625 56.24789062 -22.255625 55.68328125 -21.96875 55.1015625 C-21.20196197 53.58352944 -20.41033452 52.07777461 -19.59375 50.5859375 C-19.1709375 49.79445312 -18.748125 49.00296875 -18.3125 48.1875 C-17.8896875 47.41148437 -17.466875 46.63546875 -17.03125 45.8359375 C-13.00022532 35.83589551 -12.9258419 24.51443752 -12.04492188 13.89648438 C-11.92826172 12.64287109 -11.81160156 11.38925781 -11.69140625 10.09765625 C-11.5941626 8.96207275 -11.49691895 7.82648926 -11.39672852 6.65649414 C-10.77104191 3.61068415 -10.30539351 2.59857041 -7.8125 0.8125 C-4.77671528 -0.19942824 -3.13739459 -0.25542537 0 0 Z " fill="#565656" transform="translate(564.8125,127.1875)"/>
<path d="M0 0 C4.77065898 3.11927702 9.53787497 6.37173428 11.5703125 11.9609375 C12.46246956 17.67268216 11.52482144 23.55196835 10.9296875 29.26171875 C9.38708031 42.32000164 9.38708031 42.32000164 10.9296875 55.26171875 C13.5696875 55.59171875 16.2096875 55.92171875 18.9296875 56.26171875 C19.91003319 60.96098452 20.60298876 64.84505611 18.2421875 69.19921875 C14.99886989 73.49442315 14.99886989 73.49442315 11.9296875 74.26171875 C4.91683403 74.94038199 4.91683403 74.94038199 0.9296875 72.19921875 C-2.60197354 69.91835433 -3.97176102 70.02821621 -7.9453125 70.70703125 C-10.2104337 71.26278874 -10.2104337 71.26278874 -12.890625 72.2890625 C-19.1037831 74.18964772 -26.32143812 74.47980727 -32.546875 72.45703125 C-39.37177826 68.63613946 -43.59073878 61.5088365 -46.0703125 54.26171875 C-47.26272453 46.0118913 -45.18082574 38.82905465 -40.52734375 31.99609375 C-34.13761429 24.10031822 -27.8735857 22.13145874 -18.0703125 21.01171875 C-15.40487724 20.7366304 -12.74014843 20.49229549 -10.0703125 20.26171875 C-10.4003125 18.61171875 -10.7303125 16.96171875 -11.0703125 15.26171875 C-17.5230375 14.0472603 -20.99443425 14.49995591 -27.0703125 17.26171875 C-29.98900119 17.73823935 -32.0640347 17.61245116 -35.0703125 17.26171875 C-37.70275404 15.12286 -37.99313889 13.70546698 -38.5703125 10.38671875 C-37.89933968 6.19313861 -36.35474217 3.8202679 -33.0703125 1.26171875 C-23.36942275 -4.18557463 -9.96332345 -5.3576362 0 0 Z " fill="#565656" transform="translate(235.0703125,132.73828125)"/>
<path d="M0 0 C5.91224795 4.26806372 11.46069388 9.07461967 14 16 C14.57089433 21.4134215 14.96876527 26.59023979 12.91015625 31.7109375 C8.14617389 37.4199225 0.50853658 37.78407093 -6.4375 38.6875 C-7.34048828 38.81705078 -8.24347656 38.94660156 -9.17382812 39.08007812 C-14.50083915 39.80911874 -19.62494003 40.13201902 -25 40 C-23.84569049 44.3684367 -23.84569049 44.3684367 -21.0625 47.8125 C-13.57899635 52.12118392 -1.95694248 50.66996475 6.125 48.51171875 C7.053125 48.25841797 7.053125 48.25841797 8 48 C9.99708656 47.64963394 11.99598989 47.30830925 14 47 C14.57306459 60.11681173 14.57306459 60.11681173 11 65 C3.79919082 71.88077322 -3.39240395 74.4604855 -13.18359375 74.34375 C-24.0297791 73.01994374 -33.96251286 66.27321787 -40.75 57.91796875 C-46.86514029 48.53505037 -46.78585827 35.74744198 -46 25 C-43.83538468 15.06750797 -38.36735941 6.79278728 -30 1 C-20.33065037 -4.12005493 -9.98619218 -4.90034508 0 0 Z " fill="#565656" transform="translate(683,133)"/>
<path d="M0 0 C5.91224795 4.26806372 11.46069388 9.07461967 14 16 C14.57089433 21.4134215 14.96876527 26.59023979 12.91015625 31.7109375 C8.14617389 37.4199225 0.50853658 37.78407093 -6.4375 38.6875 C-7.34048828 38.81705078 -8.24347656 38.94660156 -9.17382812 39.08007812 C-14.50083915 39.80911874 -19.62494003 40.13201902 -25 40 C-23.84569049 44.3684367 -23.84569049 44.3684367 -21.0625 47.8125 C-13.57899635 52.12118392 -1.95694248 50.66996475 6.125 48.51171875 C7.053125 48.25841797 7.053125 48.25841797 8 48 C9.99708656 47.64963394 11.99598989 47.30830925 14 47 C14.57306459 60.11681173 14.57306459 60.11681173 11 65 C3.79919082 71.88077322 -3.39240395 74.4604855 -13.18359375 74.34375 C-24.0297791 73.01994374 -33.96251286 66.27321787 -40.75 57.91796875 C-46.86514029 48.53505037 -46.78585827 35.74744198 -46 25 C-43.83538468 15.06750797 -38.36735941 6.79278728 -30 1 C-20.33065037 -4.12005493 -9.98619218 -4.90034508 0 0 Z " fill="#565656" transform="translate(426,133)"/>
<path d="M0 0 C1.06118042 0.01123901 1.06118042 0.01123901 2.14379883 0.02270508 C8.78508119 0.15974134 13.66257146 0.49112247 19.1875 4.4375 C21.125 7.25 21.125 7.25 21.375 10.8125 C20.08380143 14.36329606 19.05532671 15.91802258 15.64453125 17.60546875 C9.98157513 19.05413194 3.92357184 18.5186597 -1.875 18.25 C-2.205 19.57 -2.535 20.89 -2.875 22.25 C2.53177063 24.32983228 2.53177063 24.32983228 8.046875 26.09375 C16.57247822 28.60382608 22.86485268 32.09378889 27.625 39.8125 C30.15492817 45.65868536 30.06005073 52.04532229 29.125 58.25 C25.32591258 67.31046509 14.7645075 72.59113984 6.125 76.25 C-2.80677509 78.99823849 -11.5401224 77.03868602 -19.625 72.8125 C-20.3675 72.296875 -21.11 71.78125 -21.875 71.25 C-22.761875 70.693125 -23.64875 70.13625 -24.5625 69.5625 C-28.97575934 65.14924066 -28.97480911 59.67825724 -29 53.75 C-28.96836832 52.24975484 -28.9303116 50.74955885 -28.875 49.25 C-28.235625 49.518125 -27.59625 49.78625 -26.9375 50.0625 C-25.926875 50.454375 -24.91625 50.84625 -23.875 51.25 C-23.25496094 51.51425781 -22.63492188 51.77851563 -21.99609375 52.05078125 C-13.27338778 55.44026736 -3.65111266 55.51553029 5.125 52.25 C5.455 50.6 5.785 48.95 6.125 47.25 C5.47015625 47.09144531 4.8153125 46.93289062 4.140625 46.76953125 C-7.35586785 43.8304561 -18.71478293 40.57417906 -25.8125 30.5 C-27.88081056 24.17340299 -27.87911892 18.5183869 -24.875 12.5 C-19.115659 3.28179132 -10.61637113 -0.14694374 0 0 Z " fill="#565656" transform="translate(732.875,129.75)"/>
<path d="M0 0 C2.5625 1.625 2.5625 1.625 4 4 C4.73517849 9.06456294 4.65739525 10.94418338 1.9375 15.3125 C-3.33422727 20.13556963 -7.24406751 21.04556707 -14.1875 21.375 C-18.935578 21.58650387 -18.935578 21.58650387 -22.6875 24.4375 C-24.89790732 28.75305716 -25.66219465 32.12878728 -25 37 C-22.30455136 42.10209922 -19.4785689 45.17381037 -14 47 C-12.15389468 47.08239169 -10.30494836 47.10743359 -8.45703125 47.09765625 C-6.84731445 47.09282227 -6.84731445 47.09282227 -5.20507812 47.08789062 C-4.08552734 47.07951172 -2.96597656 47.07113281 -1.8125 47.0625 C-0.68134766 47.05798828 0.44980469 47.05347656 1.61523438 47.04882812 C4.41020927 47.03703498 7.2050782 47.0205765 10 47 C10.02722041 48.57802775 10.04649526 50.15619364 10.0625 51.734375 C10.07410156 52.61319336 10.08570313 53.49201172 10.09765625 54.39746094 C9.91020026 59.3931631 8.78624231 63.25926705 5.16015625 66.79296875 C-2.68461139 72.94314971 -11.34752409 73.01446175 -21 72 C-31.01534678 69.61815999 -40.02415433 63.23509029 -45.5 54.4375 C-50.49445044 42.99188441 -50.73999586 30.35871725 -46.26171875 18.65234375 C-42.02175282 9.73922653 -34.84095478 2.45718657 -25.65234375 -1.3125 C-17.69212216 -3.37582695 -7.73599761 -2.95838151 0 0 Z " fill="#555555" transform="translate(497,133)"/>
<path d="M0 0 C4.57923739 1.63844274 8.63101572 3.55815447 11 8 C11 8.66 11 9.32 11 10 C11.72445312 9.52949219 12.44890625 9.05898437 13.1953125 8.57421875 C26.69670153 -0.12067578 26.69670153 -0.12067578 31.375 0.3125 C32.24125 0.539375 33.1075 0.76625 34 1 C35.6190602 7.10429455 34.00357956 11.5663167 31 17 C28.39151954 19.84488652 25.68430856 22.39564107 22.75390625 24.90625 C16.07762336 31.62277999 14.47534803 39.98550186 14.3515625 49.125 C14.35929688 50.28 14.36703125 51.435 14.375 52.625 C14.375 61.95406265 14.30591725 70.04112412 9 78 C3.7093405 79.18007275 -0.96535681 78.43482712 -5.5625 75.625 C-7.73333408 74.13118661 -8.8162752 73.36744959 -10 71 C-10.10719275 68.86146743 -10.14889362 66.71955154 -10.16113281 64.57836914 C-10.16609772 63.91965317 -10.17106262 63.26093719 -10.17617798 62.58226013 C-10.1908014 60.39988161 -10.19760133 58.21757574 -10.203125 56.03515625 C-10.20887567 54.52062477 -10.21463341 53.00609332 -10.22039795 51.49156189 C-10.230908 48.31476502 -10.23675084 45.13799346 -10.24023438 41.96118164 C-10.24572361 37.887664 -10.26976043 33.81447987 -10.29820633 29.74106693 C-10.31681502 26.61241167 -10.32203732 23.48383709 -10.32357025 20.35513115 C-10.3266006 18.85319632 -10.33464201 17.35126304 -10.34775543 15.8493824 C-10.36478212 13.74967047 -10.36294476 11.65077805 -10.35644531 9.55102539 C-10.36009094 8.35570694 -10.36373657 7.16038849 -10.36749268 5.92884827 C-10 3 -10 3 -8.67694092 1.11790466 C-5.7541329 -0.8305365 -3.41806079 -0.39223648 0 0 Z " fill="#575757" transform="translate(598,130)"/>
<path d="M0 0 C5.99702947 0.13585504 12.29735306 1.80687394 16.7265625 6.015625 C20.01927422 12.11623199 19.08602119 20.16251255 18.9140625 26.90234375 C18.89282318 27.89069717 18.87158386 28.8790506 18.84970093 29.89735413 C18.8036647 31.97745086 18.75475706 34.05748582 18.703125 36.13745117 C18.62532739 39.29919485 18.55805763 42.46103461 18.4921875 45.62304688 C18.4459391 47.6536602 18.39908414 49.68425982 18.3515625 51.71484375 C18.33171295 52.64948959 18.3118634 53.58413544 18.29141235 54.54710388 C17.88503177 70.23302352 17.88503177 70.23302352 15.0625 73.875 C11.87990938 76.18961136 9.96557846 76.55622329 6.0625 76.625 C5.18722656 76.65078125 4.31195313 76.6765625 3.41015625 76.703125 C0.47107993 76.30299143 -0.10624398 75.58692227 -2 73.375 C-5.09808981 66.95195796 -5.23620888 62.01994141 -4.6875 55 C-4.56563324 52.96251407 -4.44863797 50.92473225 -4.3359375 48.88671875 C-4.24650879 47.29609619 -4.24650879 47.29609619 -4.15527344 45.67333984 C-3.51308254 32.03183186 -3.06254501 18.16181252 -5.7578125 4.71875 C-5.83773437 3.9453125 -5.91765625 3.171875 -6 2.375 C-3.67135666 0.04635666 -3.16677929 0.05654963 0 0 Z " fill="#565656" transform="translate(93,129.625)"/>
<path d="M0 0 C4.23117458 0.57817292 6.06463116 1.51626849 9.14453125 4.4296875 C11.98769786 8.69443742 11.65125016 12.42486385 11.14453125 17.4296875 C9.58487671 21.71873748 8.02084482 24.06231952 4.14453125 26.4296875 C-0.62043629 27.34551692 -5.56293112 27.59710519 -9.97265625 25.3515625 C-13.95289093 21.58081386 -14.28997589 17.63848765 -14.48046875 12.3046875 C-14.45424511 8.30995298 -14.1908749 6.02143978 -12.21484375 2.53515625 C-8.38907357 -0.87890026 -4.91054569 -0.18738334 0 0 Z " fill="#565656" transform="translate(791.85546875,180.5703125)"/>
<path d="M0 0 C6.28939232 -0.00984255 11.60908983 0.90570158 16.93359375 4.43359375 C19.70121738 7.36365127 20.34559367 9.36893562 20.30859375 13.37109375 C20.18710833 17.48944958 19.65520208 20.18859921 16.93359375 23.43359375 C14.06025928 24.87026099 11.7488884 24.43607759 8.55859375 24.24609375 C7.41648437 24.19066406 6.274375 24.13523437 5.09765625 24.078125 C1.40919117 23.326771 0.21142054 22.37444994 -2.06640625 19.43359375 C-4.09207475 14.26813908 -4.79259204 8.94406236 -4.06640625 3.43359375 C-2.06640625 0.43359375 -2.06640625 0.43359375 0 0 Z " fill="#575757" transform="translate(91.06640625,97.56640625)"/>
<path d="M0 0 C2 2 2 2 2.3125 4.875 C1.96903084 8.30969162 1.41312854 9.58687146 -1 12 C-4.52994613 13.17664871 -7.29455413 13.19850603 -11 13 C-11.99 12.34 -12.98 11.68 -14 11 C-14.5625 8.1875 -14.5625 8.1875 -14 5 C-9.60603802 -0.05305627 -6.57422374 -0.76699277 0 0 Z " fill="#F8F8F8" transform="translate(222,171)"/>
<path d="M0 0 C5.68980871 3.00593668 5.68980871 3.00593668 6.66796875 6.140625 C6.77753906 6.75421875 6.88710938 7.3678125 7 8 C4.47980028 8.33885038 1.95901484 8.67120335 -0.5625 9 C-1.26697266 9.09539062 -1.97144531 9.19078125 -2.69726562 9.2890625 C-7.17367855 9.86666417 -11.48661238 10.09489383 -16 10 C-15.66960927 6.91635318 -15.02342865 6.02152903 -12.6875 3.875 C-8.25978478 0.78589636 -5.53739107 -0.66448693 0 0 Z " fill="#F4F4F4" transform="translate(672,147)"/>
<path d="M0 0 C5.68980871 3.00593668 5.68980871 3.00593668 6.66796875 6.140625 C6.77753906 6.75421875 6.88710938 7.3678125 7 8 C4.47980028 8.33885038 1.95901484 8.67120335 -0.5625 9 C-1.26697266 9.09539062 -1.97144531 9.19078125 -2.69726562 9.2890625 C-7.17367855 9.86666417 -11.48661238 10.09489383 -16 10 C-15.66960927 6.91635318 -15.02342865 6.02152903 -12.6875 3.875 C-8.25978478 0.78589636 -5.53739107 -0.66448693 0 0 Z " fill="#F4F4F4" transform="translate(415,147)"/>
</svg>
