<?xml version="1.0" standalone="no"?>
<!DOCTYPE svg PUBLIC "-//W3C//DTD SVG 20010904//EN"
 "http://www.w3.org/TR/2001/REC-SVG-20010904/DTD/svg10.dtd">
<svg version="1.0" xmlns="http://www.w3.org/2000/svg"
 width="1050.000000pt" height="600.000000pt" viewBox="0 0 1050.000000 600.000000"
 preserveAspectRatio="xMidYMid meet">

<g transform="translate(0.000000,600.000000) scale(0.100000,-0.100000)"
fill="#000000" stroke="none">
<path d="M4780 3700 c0 -109 2 -130 15 -130 11 0 15 11 15 38 1 35 27 82 47
82 5 0 29 -27 53 -60 26 -36 51 -60 62 -60 15 0 7 16 -38 76 l-57 75 54 55
c42 42 49 54 34 54 -12 0 -47 -29 -87 -72 l-67 -73 -1 73 c0 57 -3 72 -15 72
-13 0 -15 -21 -15 -130z"/>
<path d="M5080 3700 c0 -109 2 -130 15 -130 13 0 15 21 15 130 0 109 -2 130
-15 130 -13 0 -15 -21 -15 -130z"/>
<path d="M5230 3700 c0 -109 2 -130 15 -130 11 0 15 11 15 38 0 28 7 45 24 61
14 13 28 21 33 18 4 -3 26 -30 48 -61 24 -33 48 -56 59 -56 13 0 16 4 9 13 -5
6 -30 39 -56 73 l-46 61 50 57 c36 40 46 56 33 56 -9 0 -43 -29 -76 -65 -33
-36 -64 -65 -69 -65 -5 0 -9 29 -9 65 0 51 -3 65 -15 65 -13 0 -15 -21 -15
-130z"/>
<path d="M5600 3805 c-5 -14 -28 -70 -50 -124 -45 -110 -45 -111 -26 -111 8 0
21 18 30 40 16 40 16 40 72 40 l56 0 15 -40 c11 -26 22 -40 34 -40 16 0 11 18
-35 127 -55 134 -77 159 -96 108z m45 -52 c33 -79 33 -83 -19 -83 -25 0 -46 2
-46 4 0 9 43 116 46 116 2 0 11 -17 19 -37z"/>
<path d="M2838 3383 c7 -3 16 -2 19 1 4 3 -2 6 -13 5 -11 0 -14 -3 -6 -6z"/>
<path d="M2993 3371 c67 -27 128 -80 177 -154 l41 -62 -6 110 c-4 61 -8 111
-9 111 0 1 -57 4 -126 8 l-125 6 48 -19z"/>
<path d="M2720 3360 c-75 -27 -129 -68 -165 -125 -25 -41 -31 -61 -33 -125 -9
-185 97 -282 407 -374 200 -60 240 -88 221 -157 -11 -38 -37 -67 -85 -92 -26
-14 -27 -16 -8 -17 40 0 133 43 179 83 65 57 88 107 88 192 0 87 -22 134 -94
198 -61 55 -138 93 -310 152 -149 50 -165 58 -202 93 -53 49 -27 131 53 170
56 28 24 28 -51 2z"/>
<path d="M3643 3205 c-159 -49 -256 -182 -256 -350 0 -108 27 -178 98 -251
120 -122 294 -146 457 -63 56 28 138 108 167 161 l24 43 -34 -31 c-72 -67
-152 -86 -244 -59 -45 13 -69 28 -110 69 -71 71 -85 118 -85 291 0 120 2 135
21 159 12 15 31 32 43 36 36 15 -32 11 -81 -5z"/>
<path d="M3802 3205 c42 -24 48 -45 48 -159 l0 -106 140 0 c108 0 140 3 140
13 0 7 -11 36 -25 64 -50 100 -172 186 -281 199 -48 5 -49 5 -22 -11z"/>
<path d="M4477 3209 c-103 -24 -205 -107 -254 -207 -24 -50 -28 -69 -28 -147
0 -82 3 -97 32 -156 115 -234 410 -277 616 -90 35 31 87 101 87 116 0 3 -20
-10 -44 -29 -131 -100 -305 -56 -389 99 -32 58 -31 208 2 281 30 68 78 114
138 130 l48 13 -85 -1 c-47 0 -102 -4 -123 -9z"/>
<path d="M4977 3208 c4 -7 10 -135 13 -284 l5 -271 30 -49 c78 -125 245 -150
350 -53 40 37 75 102 62 115 -3 3 -8 -4 -12 -15 -7 -23 -53 -51 -83 -51 -11 0
-29 8 -41 18 -22 17 -22 20 -19 310 l3 292 -158 0 c-124 0 -156 -3 -150 -12z"/>
<path d="M5436 3203 c5 -10 9 -140 10 -289 1 -301 4 -316 70 -373 59 -53 139
-64 213 -31 42 19 43 21 27 39 -15 17 -17 51 -14 345 l3 326 -159 0 c-147 0
-158 -1 -150 -17z"/>
<path d="M6705 3206 c-107 -34 -186 -102 -232 -201 -24 -52 -28 -72 -28 -150
0 -82 3 -97 32 -156 115 -234 410 -277 616 -90 35 31 87 101 87 116 0 3 -20
-10 -44 -29 -145 -110 -356 -35 -406 144 -14 51 -13 293 2 326 7 15 26 33 43
40 l30 13 -30 0 c-16 0 -48 -6 -70 -13z"/>
<path d="M6857 3206 c46 -21 53 -43 53 -160 l0 -106 141 0 140 0 -6 23 c-40
130 -173 240 -307 253 -53 5 -53 5 -21 -10z"/>
<path d="M7528 3213 c7 -3 16 -2 19 1 4 3 -2 6 -13 5 -11 0 -14 -3 -6 -6z"/>
<path d="M7707 3201 c70 -24 128 -66 176 -125 l39 -50 -7 85 c-4 46 -8 90 -10
97 -3 9 -37 12 -127 12 l-123 -1 52 -18z"/>
<path d="M4719 3185 c57 -49 64 -138 22 -274 -11 -35 -16 -60 -12 -55 4 5 45
63 91 129 46 66 87 125 92 132 11 14 -38 41 -131 72 -84 28 -99 27 -62 -4z"/>
<path d="M7411 3190 c-121 -44 -181 -114 -181 -211 0 -43 6 -65 29 -101 48
-75 116 -113 345 -192 176 -60 243 -95 252 -132 8 -31 -8 -50 -62 -70 l-39
-15 45 6 c135 18 240 112 240 216 0 119 -94 191 -400 304 -85 31 -170 66 -188
77 -67 41 -62 85 11 119 56 25 18 24 -52 -1z"/>
<path d="M5838 2862 c-2 -185 -7 -345 -12 -354 -8 -17 3 -18 160 -18 131 0
165 3 156 12 -9 9 -12 85 -12 278 0 246 1 268 18 283 40 37 88 9 99 -57 3 -20
7 -36 8 -36 9 0 175 82 179 89 3 4 -4 26 -15 49 -21 43 -82 82 -127 82 -49 0
-104 -33 -133 -79 l-29 -45 0 62 c0 34 -3 62 -7 62 -5 0 -26 -7 -48 -15 -60
-21 -163 -19 -202 5 l-32 19 -3 -337z"/>
<path d="M2526 2709 c-76 -70 -77 -67 17 -131 52 -35 156 -88 174 -88 4 0 -11
12 -33 26 -75 48 -113 135 -95 214 5 22 8 40 6 40 -1 0 -32 -28 -69 -61z"/>
<path d="M7227 2683 c-3 -15 -9 -56 -12 -89 -8 -72 -24 -62 148 -99 134 -28
185 -32 117 -8 -94 33 -177 100 -223 181 l-24 43 -6 -28z"/>
<path d="M2998 2463 c6 -2 18 -2 25 0 6 3 1 5 -13 5 -14 0 -19 -2 -12 -5z"/>
<path d="M7538 2463 c6 -2 18 -2 25 0 6 3 1 5 -13 5 -14 0 -19 -2 -12 -5z"/>
<path d="M7703 2463 c9 -2 25 -2 35 0 9 3 1 5 -18 5 -19 0 -27 -2 -17 -5z"/>
</g>
</svg>
