<?xml version="1.0" encoding="UTF-8"?>
<svg version="1.1" xmlns="http://www.w3.org/2000/svg" width="851" height="315">
<path d="M0 0 C280.83 0 561.66 0 851 0 C851 103.95 851 207.9 851 315 C570.17 315 289.34 315 0 315 C0 211.05 0 107.1 0 0 Z " fill="#FEFEFE" transform="translate(0,0)"/>
<path d="M0 0 C5.18957914 1.17184045 10.72643705 2.60701806 14.48266602 6.57202148 C16.27886892 9.54301604 16.21880005 11.49659656 16.16796875 14.953125 C16.15830078 16.11328125 16.14863281 17.2734375 16.13867188 18.46875 C16.11353516 19.6753125 16.08839844 20.881875 16.0625 22.125 C16.04219727 23.95804688 16.04219727 23.95804688 16.02148438 25.828125 C15.9861398 28.84419498 15.9367956 31.85937487 15.875 34.875 C18.45288575 32.44531496 20.40112518 30.32640181 21.91015625 27.1171875 C22.24321777 26.41343994 22.5762793 25.70969238 22.91943359 24.98461914 C23.42337646 23.87848267 23.42337646 23.87848267 23.9375 22.75 C24.28893066 21.99388428 24.64036133 21.23776855 25.00244141 20.45874023 C27.20620005 15.62360483 29.04417134 10.83537399 30.3046875 5.66015625 C30.875 3.875 30.875 3.875 32.875 1.875 C38.93669566 2.23870174 45.46836809 3.46836809 49.875 7.875 C51.93873341 14.06620022 51.7779554 20.44263113 49.3125 26.5 C46.23788599 32.56322483 41.8472429 37.6272004 37.38671875 42.7109375 C36.55785156 43.67257813 35.72898438 44.63421875 34.875 45.625 C33.699375 46.94757813 33.699375 46.94757813 32.5 48.296875 C30.64970017 50.72452751 30.64970017 50.72452751 30.875 53.41015625 C32.09560871 56.41876601 33.63620635 58.21098931 35.875 60.5625 C37.09123047 61.86380859 37.09123047 61.86380859 38.33203125 63.19140625 C39.17121094 64.07699219 40.01039062 64.96257812 40.875 65.875 C43.91530794 69.17405755 46.90553446 72.51219108 49.875 75.875 C50.5246875 76.56464844 51.174375 77.25429687 51.84375 77.96484375 C55.83998496 82.55143161 55.83998496 82.55143161 55.93359375 86.08984375 C55.47618639 88.50050415 54.79208493 90.60015296 53.875 92.875 C53.58753906 93.60332031 53.30007812 94.33164063 53.00390625 95.08203125 C51.07390532 99.39850635 49.08772413 102.46772907 44.875 104.875 C42.125 105.5625 42.125 105.5625 38.875 104.875 C33.26635623 101.46486642 29.17710177 97.56827892 25.875 91.875 C24.86147218 90.34928834 23.84006881 88.82879056 22.8125 87.3125 C20.74525103 84.21424331 18.74597345 81.09723205 16.875 77.875 C15.08465815 80.56051277 14.45527491 81.97959869 13.7265625 85 C13.52546875 85.78890625 13.324375 86.5778125 13.1171875 87.390625 C12.70617923 89.04506334 12.30250939 90.70134228 11.90625 92.359375 C10.36462118 98.33074741 10.36462118 98.33074741 8.01953125 100.9375 C3.97142549 102.70716372 0.05038895 101.99836234 -4.125 100.875 C-7.34800982 98.32345056 -10.79691824 95.23429383 -11.390625 90.96484375 C-11.36228332 87.06077673 -11.10698808 83.41698145 -10.2421875 79.60546875 C-8.71463954 72.21663745 -7.86560563 64.73909616 -7 57.25 C-6.91062164 56.48065125 -6.82124329 55.71130249 -6.72915649 54.91864014 C-4.70794639 37.22290327 -4.18469985 19.61488708 -6.125 1.875 C-3.125 -0.125 -3.125 -0.125 0 0 Z " fill="#555555" transform="translate(46.125,108.125)"/>
<path d="M0 0 C1.11387085 0.00314209 1.11387085 0.00314209 2.25024414 0.00634766 C9.4911743 0.2129385 15.49157632 2.30407632 20.6875 7.5 C21.17055373 12.33053734 21.19176174 14.56102986 18.875 18.875 C16.6875 21.5 16.6875 21.5 13.6875 23.5 C10.09308534 23.7865376 6.53850981 23.91466565 2.93554688 23.97851562 C-0.49419088 24.10089965 -2.77619856 24.20898372 -5.83203125 25.8671875 C-7.58064088 27.46749534 -7.58064088 27.46749534 -7.5625 30.1875 C-7.43875 31.3321875 -7.43875 31.3321875 -7.3125 32.5 C-3.85336528 34.50265694 -0.78391506 35.67950374 3.125 36.3125 C12.49707001 38.09900654 22.16530837 40.79843888 28.625 48.1875 C33.39724151 55.86913436 33.23235214 64.82027386 31.6875 73.5 C29.34041805 82.5307974 24.39057786 88.93317771 16.5625 93.87890625 C15.61375 94.41386719 14.665 94.94882813 13.6875 95.5 C12.82125 96.02464844 11.955 96.54929687 11.0625 97.08984375 C1.42604108 102.26657243 -8.90868645 101.71496676 -19.25 98.875 C-25.94663716 96.55756768 -31.34509904 93.45110144 -35.3125 87.5 C-35.61328125 84.94140625 -35.61328125 84.94140625 -35.625 82.0625 C-35.64175781 81.11503906 -35.65851563 80.16757813 -35.67578125 79.19140625 C-35.26238891 76.12874691 -34.34979471 74.77381441 -32.3125 72.5 C-29.95999671 72.87943601 -27.74617279 73.32041744 -25.5390625 74.234375 C-16.84092673 77.76695121 -5.91322354 77.93250283 3.0625 75.1875 C6.86262334 73.80088881 6.86262334 73.80088881 8.6875 70.5 C8.85449232 67.37478167 8.85449232 67.37478167 8.6875 64.5 C4.20850821 62.43277302 -0.08285612 60.97169667 -4.87255859 59.81445312 C-15.11741147 57.31644639 -23.3841178 53.74827623 -29.3125 44.5 C-32.82187194 36.95485032 -31.93889773 28.65077267 -29.3515625 20.94921875 C-25.53711884 11.95803012 -19.3814142 4.84757875 -10.26391602 1.11083984 C-6.85923823 0.04509434 -3.54592262 -0.02967971 0 0 Z " fill="#565656" transform="translate(343.3125,108.5)"/>
<path d="M0 0 C4.61459064 0.31401061 7.17880918 0.49116664 10.890625 3.4296875 C15.13283953 8.99759407 15.13283953 8.99759407 15.20947266 13.25073242 C15.22934235 14.09137741 15.24921204 14.9320224 15.26968384 15.79814148 C15.28123505 16.70135635 15.29278625 17.60457123 15.3046875 18.53515625 C15.32405365 19.46314529 15.3434198 20.39113434 15.3633728 21.34724426 C15.42316744 24.31213175 15.46955355 27.27705807 15.515625 30.2421875 C15.55380488 32.25197009 15.59285662 34.26173631 15.6328125 36.27148438 C15.72886893 41.19908592 15.81290049 46.12676408 15.890625 51.0546875 C20.27524638 45.70472767 22.75392942 40.61739534 24.890625 34.0546875 C25.220625 33.7246875 25.550625 33.3946875 25.890625 33.0546875 C31.94493101 33.46514892 36.70247121 34.46665678 41.55078125 38.40234375 C43.25546556 40.50462206 43.25789771 41.44734227 43.015625 44.1171875 C41.74659301 52.60039049 35.42743647 59.06369685 29.078125 64.38671875 C27.65559342 66.04279188 27.65559342 66.04279188 27.89453125 68.48046875 C29.20996077 71.87995133 30.95893811 73.20033331 33.828125 75.4296875 C34.81683594 76.20054687 35.80554688 76.97140625 36.82421875 77.765625 C44.3666405 83.79152823 44.3666405 83.79152823 52.890625 88.0546875 C52.33459488 92.23994122 50.96488961 94.82665183 48.515625 98.2421875 C47.90976563 99.10199219 47.30390625 99.96179688 46.6796875 100.84765625 C44.70578878 103.28270598 43.04513011 104.81786594 39.91015625 105.4609375 C34.43827524 105.69337138 31.22233226 104.70256993 27.01953125 101.1875 C22.62153502 96.78143405 18.74493461 91.93575992 14.890625 87.0546875 C12.69997591 89.93545176 12.69997591 89.93545176 12.203125 93.3671875 C10.28932856 98.74404418 6.69590277 101.49330841 1.78515625 104.2265625 C-0.109375 105.0546875 -0.109375 105.0546875 -2.046875 104.9921875 C-5.35717191 103.48750709 -6.94044975 102.00683576 -9.109375 99.0546875 C-9.6825219 95.00444942 -9.96921789 90.77437329 -8.109375 87.0546875 C-7.60158412 82.29899669 -7.38557639 77.51640273 -7.109375 72.7421875 C-7.06546631 72.01236664 -7.02155762 71.28254578 -6.97631836 70.53060913 C-6.39229718 60.70042513 -6.02059529 50.87691703 -5.828125 41.03125 C-5.80830566 40.02067032 -5.78848633 39.01009064 -5.76806641 37.96888733 C-5.67440678 32.96267535 -5.5975019 27.95669452 -5.5390625 22.94995117 C-5.51047091 21.09553953 -5.48182749 19.24112868 -5.453125 17.38671875 C-5.44792847 16.54634064 -5.44273193 15.70596252 -5.43737793 14.84011841 C-5.18675069 0.13447131 -5.18675069 0.13447131 0 0 Z " fill="#565656" transform="translate(152.109375,103.9453125)"/>
<path d="M0 0 C3.86559937 0.97325374 8.33544302 2.68700552 11.203125 5.5546875 C11.2959976 6.96693796 11.32059272 8.38377684 11.31665039 9.79907227 C11.31657486 10.69993057 11.31649933 11.60078888 11.31642151 12.52894592 C11.31126022 13.50810471 11.30609894 14.48726349 11.30078125 15.49609375 C11.2993663 16.49350082 11.29795135 17.4909079 11.29649353 18.51853943 C11.29087614 21.71811874 11.27832071 24.91762919 11.265625 28.1171875 C11.26061224 30.28059795 11.25604895 32.44400949 11.25195312 34.60742188 C11.24090107 39.92320075 11.22414604 45.23893921 11.203125 50.5546875 C14.36118675 49.91216875 14.36118675 49.91216875 16.8359375 47.90234375 C22.26056779 39.59499107 22.53453677 31.17718665 23.203125 21.5546875 C23.40540921 18.7868474 23.61675538 16.02073545 23.85058594 13.25537109 C24.00007036 11.48112579 24.13150112 9.70524922 24.24316406 7.92822266 C24.30987305 7.12433105 24.37658203 6.32043945 24.4453125 5.4921875 C24.4954248 4.77933594 24.54553711 4.06648437 24.59716797 3.33203125 C25.203125 1.5546875 25.203125 1.5546875 27.08886719 0.32958984 C29.67330045 -0.61763777 31.82678675 -0.78177835 34.578125 -0.8203125 C35.95097656 -0.86285156 35.95097656 -0.86285156 37.3515625 -0.90625 C41.39722034 -0.25229435 43.18577851 0.72650503 46.203125 3.5546875 C47.06556091 7.32622211 46.90020341 11.03173474 46.7890625 14.8828125 C46.78057281 15.98695496 46.77208313 17.09109741 46.76333618 18.22869873 C46.72975127 21.7550212 46.65445607 25.27905634 46.578125 28.8046875 C46.54803227 31.19527948 46.52065528 33.5859073 46.49609375 35.9765625 C46.42994326 41.83671781 46.32954225 47.69553927 46.203125 53.5546875 C47.523125 54.2146875 48.843125 54.8746875 50.203125 55.5546875 C49.62673109 62.35613569 48.81530596 66.29871303 43.453125 70.9296875 C39.3118157 73.00034215 37.60543055 72.94488925 33.203125 71.5546875 C30.66071995 69.75216204 28.41163066 67.74976759 26.203125 65.5546875 C25.64367187 65.9878125 25.08421875 66.4209375 24.5078125 66.8671875 C17.21830038 71.92999978 10.95397527 72.77371142 2.203125 71.5546875 C-4.08581162 69.08403383 -6.82501305 63.35320641 -9.796875 57.5546875 C-11.13755977 53.53263318 -10.9880391 49.83008816 -10.984375 45.6171875 C-10.98429443 44.76415039 -10.98421387 43.91111328 -10.98413086 43.03222656 C-10.9243555 36.37513943 -10.1695751 30.07239333 -8.796875 23.5546875 C-7.55208829 16.33492455 -6.88660529 8.71819892 -8.796875 1.5546875 C-5.40928553 -0.70370548 -3.92859908 -0.59656504 0 0 Z " fill="#565656" transform="translate(518.796875,136.4453125)"/>
<path d="M0 0 C4.25344561 3.12959943 7.44992545 6.52946385 9.12890625 11.56640625 C9.2233166 13.33521192 9.25880616 15.10758957 9.25390625 16.87890625 C9.25777344 18.26529297 9.25777344 18.26529297 9.26171875 19.6796875 C9.12890625 22.56640625 9.12890625 22.56640625 8.6328125 25.31640625 C7.9619698 29.64308168 7.94475097 33.88236152 7.94140625 38.25390625 C7.92303711 39.53491211 7.92303711 39.53491211 7.90429688 40.84179688 C7.90236328 41.66228516 7.90042969 42.48277344 7.8984375 43.328125 C7.89432861 44.07022217 7.89021973 44.81231934 7.88598633 45.5769043 C8.01644332 47.88495818 8.01644332 47.88495818 10.12890625 50.56640625 C13.19447223 51.29984053 13.19447223 51.29984053 16.12890625 51.56640625 C17.59721611 58.66323724 17.59721611 58.66323724 15.37890625 62.94140625 C13.14365732 65.54919667 11.52158372 67.34211737 8.04296875 67.90234375 C2.49462 67.99702547 0.45339099 67.18962319 -3.87109375 63.56640625 C-6.82331163 63.63350211 -9.17396633 64.31338458 -11.9375 65.31640625 C-18.22344997 67.59028033 -23.71603991 68.99276802 -30.2265625 66.7578125 C-36.36427738 63.78662389 -39.73806163 59.54154609 -42.87109375 53.56640625 C-45.29992499 46.27991252 -44.57110496 39.13379984 -41.43359375 32.19140625 C-37.67448584 25.40190639 -32.91381137 22.4530078 -26.05859375 19.25390625 C-21.04712628 18.1730015 -15.98105936 17.88061126 -10.87109375 17.56640625 C-11.21896083 15.5910388 -11.21896083 15.5910388 -11.87109375 13.56640625 C-14.90141817 12.05124404 -17.52224337 12.39612572 -20.87109375 12.56640625 C-21.65484375 12.89640625 -22.43859375 13.22640625 -23.24609375 13.56640625 C-26.98881927 14.99220645 -30.91564739 15.28911059 -34.87109375 14.56640625 C-37.21278139 11.05387479 -37.36733052 9.70171269 -36.87109375 5.56640625 C-34.82442192 1.47306259 -32.07914551 -0.03229441 -27.99609375 -1.74609375 C-18.49576197 -4.84099489 -8.79365067 -5.0849611 0 0 Z " fill="#565656" transform="translate(250.87109375,141.43359375)"/>
<path d="M0 0 C6.46322499 6.83255213 8.85837361 11.7319412 8.7890625 21.296875 C8.04898796 25.00685905 6.87430141 26.67186356 4.1875 29.3125 C0.74524528 30.93431403 -2.42866017 31.68869127 -6.19140625 32.1640625 C-7.69670898 32.35742188 -7.69670898 32.35742188 -9.23242188 32.5546875 C-10.78799805 32.74417969 -10.78799805 32.74417969 -12.375 32.9375 C-13.93637695 33.13859375 -13.93637695 33.13859375 -15.52929688 33.34375 C-19.67301513 33.86604503 -23.62908064 34.3125 -27.8125 34.3125 C-27.25218727 37.24888223 -27.25218727 37.24888223 -25.8125 40.3125 C-18.89506431 44.68033752 -10.94348598 44.17010766 -3.078125 42.85546875 C-1.63661497 42.51927765 -0.2007987 42.15589607 1.22265625 41.75 C3.58165884 41.22473501 5.77853155 41.24570018 8.1875 41.3125 C8.81079486 51.04282529 8.81079486 51.04282529 6.5 55.75 C0.6205776 62.26503563 -5.59713351 65.32594859 -14.3125 66 C-23.28842568 65.77160494 -32.23859129 61.13867407 -39.05859375 55.43359375 C-40.5323185 53.79081329 -41.69821719 52.21307108 -42.8125 50.3125 C-43.410625 49.301875 -44.00875 48.29125 -44.625 47.25 C-47.01843012 41.32940971 -47.02268198 35.29622399 -47.0625 29 C-47.083125 28.19626953 -47.10375 27.39253906 -47.125 26.56445312 C-47.1845416 17.31317669 -44.58099225 9.25091625 -38.05859375 2.49609375 C-26.58450874 -8.25945756 -13.28150075 -7.96890045 0 0 Z " fill="#565656" transform="translate(668.8125,143.6875)"/>
<path d="M0 0 C6.46322499 6.83255213 8.85837361 11.7319412 8.7890625 21.296875 C8.04898796 25.00685905 6.87430141 26.67186356 4.1875 29.3125 C0.74524528 30.93431403 -2.42866017 31.68869127 -6.19140625 32.1640625 C-7.69670898 32.35742188 -7.69670898 32.35742188 -9.23242188 32.5546875 C-10.78799805 32.74417969 -10.78799805 32.74417969 -12.375 32.9375 C-13.93637695 33.13859375 -13.93637695 33.13859375 -15.52929688 33.34375 C-19.67301513 33.86604503 -23.62908064 34.3125 -27.8125 34.3125 C-27.25218727 37.24888223 -27.25218727 37.24888223 -25.8125 40.3125 C-18.89506431 44.68033752 -10.94348598 44.17010766 -3.078125 42.85546875 C-1.63661497 42.51927765 -0.2007987 42.15589607 1.22265625 41.75 C3.58165884 41.22473501 5.77853155 41.24570018 8.1875 41.3125 C8.81079486 51.04282529 8.81079486 51.04282529 6.5 55.75 C0.6205776 62.26503563 -5.59713351 65.32594859 -14.3125 66 C-23.28842568 65.77160494 -32.23859129 61.13867407 -39.05859375 55.43359375 C-40.5323185 53.79081329 -41.69821719 52.21307108 -42.8125 50.3125 C-43.410625 49.301875 -44.00875 48.29125 -44.625 47.25 C-47.01843012 41.32940971 -47.02268198 35.29622399 -47.0625 29 C-47.083125 28.19626953 -47.10375 27.39253906 -47.125 26.56445312 C-47.1845416 17.31317669 -44.58099225 9.25091625 -38.05859375 2.49609375 C-26.58450874 -8.25945756 -13.28150075 -7.96890045 0 0 Z " fill="#565656" transform="translate(430.8125,143.6875)"/>
<path d="M0 0 C6.95435778 -0.22007461 14.36079736 -0.10277473 19.9296875 4.60546875 C21.2109375 6.15234375 21.2109375 6.15234375 21.6484375 8.58984375 C21.0790835 11.92463146 19.78339664 13.03384799 17.2109375 15.15234375 C14.0391995 16.73821275 10.57579928 16.5310082 7.0859375 16.71484375 C6.33183594 16.75802734 5.57773437 16.80121094 4.80078125 16.84570312 C2.93771862 16.95182695 1.07435226 17.05259376 -0.7890625 17.15234375 C-0.7890625 18.47234375 -0.7890625 19.79234375 -0.7890625 21.15234375 C0.29632812 21.466875 1.38171875 21.78140625 2.5 22.10546875 C3.94547027 22.5372326 5.39077407 22.969554 6.8359375 23.40234375 C7.54878906 23.60730469 8.26164063 23.81226563 8.99609375 24.0234375 C17.22202866 26.51385816 22.72948053 30.64309078 27.32421875 37.9140625 C29.49230493 43.38680868 29.30961466 50.82124811 27.4765625 56.37890625 C23.99199405 61.90876487 17.7586791 65.02719673 12.2109375 68.15234375 C11.1178125 68.79171875 10.0246875 69.43109375 8.8984375 70.08984375 C0.66007446 72.46360937 -8.28272847 72.41487665 -15.953125 68.3515625 C-21.00217147 65.05356832 -23.24520842 61.94179654 -24.7890625 56.15234375 C-25.1190625 55.49234375 -25.4490625 54.83234375 -25.7890625 54.15234375 C-25.85856791 52.61210379 -25.87358607 51.06899387 -25.8515625 49.52734375 C-25.84253906 48.71007812 -25.83351563 47.8928125 -25.82421875 47.05078125 C-25.81261719 46.42429688 -25.80101562 45.7978125 -25.7890625 45.15234375 C-25.1496875 45.42046875 -24.5103125 45.68859375 -23.8515625 45.96484375 C-22.8409375 46.35671875 -21.8303125 46.74859375 -20.7890625 47.15234375 C-20.15742187 47.41660156 -19.52578125 47.68085938 -18.875 47.953125 C-12.21296804 50.50892272 -4.62785454 51.7202205 2.30859375 49.47265625 C4.10879869 48.62248177 4.10879869 48.62248177 6.2109375 47.15234375 C6.2109375 46.16234375 6.2109375 45.17234375 6.2109375 44.15234375 C5.41042969 43.88925415 5.41042969 43.88925415 4.59375 43.62084961 C-16.38738567 36.61730659 -16.38738567 36.61730659 -22.7890625 27.21484375 C-24.44885995 22.13171407 -24.76792409 18.50089445 -22.72265625 13.59375 C-19.51095831 7.70417857 -16.03731834 3.75476072 -9.7890625 1.15234375 C-6.47694868 0.3243153 -3.39571541 0.18548025 0 0 Z " fill="#565656" transform="translate(708.7890625,137.84765625)"/>
<path d="M0 0 C2.5625 2.25 2.5625 2.25 4 5 C4.08654917 9.06781106 3.09065393 10.86531416 0.8125 14.25 C-3.52849046 18.49452401 -7.21206814 18.96529336 -13.0625 19.3125 C-16.96165379 19.62959986 -17.84878645 19.87964636 -21.0625 22.4375 C-24.18412518 26.56610104 -24.19548118 28.72367799 -23.57421875 33.7421875 C-22.51907063 37.89100121 -19.69287628 39.96646875 -16.17089844 42.11669922 C-13.50466034 43.20154508 -11.45273439 43.2272526 -8.578125 43.1953125 C-7.55332031 43.18886719 -6.52851563 43.18242187 -5.47265625 43.17578125 C-4.40917969 43.15902344 -3.34570312 43.14226562 -2.25 43.125 C-0.63158203 43.11146484 -0.63158203 43.11146484 1.01953125 43.09765625 C3.67991278 43.07411305 6.33984336 43.04122799 9 43 C9.03047939 44.76291315 9.05224282 46.52597848 9.0703125 48.2890625 C9.08336426 49.27084473 9.09641602 50.25262695 9.10986328 51.26416016 C8.89975491 56.49632562 6.86013473 59.13986527 3.25 62.75 C-3.29599572 67.28184319 -10.24356254 67.83514804 -18 67 C-27.99851313 64.60579822 -35.88603408 59.59200519 -41.74609375 51.11328125 C-46.92146752 42.39092234 -47.37760389 32.54556425 -45.30859375 22.71484375 C-42.31559498 12.8091449 -37.06020453 5.22960335 -28 0 C-19.48258054 -3.46831208 -8.57561985 -3.33496327 0 0 Z " fill="#565656" transform="translate(492,141)"/>
<path d="M0 0 C3.39187812 0.85519244 5.67552622 2.28786278 8.29296875 4.578125 C8.94921875 6.71484375 8.94921875 6.71484375 9.29296875 8.578125 C10.23398437 8.01222656 11.175 7.44632813 12.14453125 6.86328125 C13.40205477 6.12190544 14.6598836 5.38104734 15.91796875 4.640625 C16.53542969 4.26744141 17.15289063 3.89425781 17.7890625 3.50976562 C21.60517674 1.28035151 24.79006033 -0.11155726 29.29296875 -0.421875 C29.95296875 -0.091875 30.61296875 0.238125 31.29296875 0.578125 C32.01851072 7.25311111 29.9903344 12.03207653 26.29296875 17.578125 C24.11468478 19.88431532 21.87976709 22.01202661 19.4765625 24.08203125 C13.18902722 31.26939269 12.735993 38.8526212 12.73046875 48.078125 C12.65443898 66.21665477 12.65443898 66.21665477 7.29296875 71.578125 C2.64822441 72.39166474 -1.54593977 72.01416512 -5.70703125 69.765625 C-8.70703125 67.578125 -8.70703125 67.578125 -9.70703125 64.578125 C-9.81090616 62.58531576 -9.8556146 60.58922517 -9.86816406 58.59375 C-9.87777161 57.36237305 -9.88737915 56.13099609 -9.89727783 54.86230469 C-9.90212472 53.51758001 -9.90640381 52.17285318 -9.91015625 50.828125 C-9.91590922 49.44954425 -9.92166693 48.07096352 -9.9274292 46.69238281 C-9.93792702 43.80403267 -9.9437782 40.91571028 -9.94726562 38.02734375 C-9.95275948 34.32489253 -9.9768111 30.62280738 -10.00523758 26.92047119 C-10.02384878 24.07404501 -10.02906865 21.22770748 -10.0306015 18.38122559 C-10.0336301 17.01605215 -10.04166569 15.65088034 -10.05478668 14.2857666 C-10.07181955 12.37808491 -10.06812612 10.47025207 -10.06347656 8.5625 C-10.06712219 7.47678711 -10.07076782 6.39107422 -10.07452393 5.27246094 C-9.70703125 2.578125 -9.70703125 2.578125 -8.31292725 0.7175293 C-5.5749398 -1.22510875 -3.17677553 -0.47677545 0 0 Z " fill="#565656" transform="translate(585.70703125,138.421875)"/>
<path d="M0 0 C4.83442875 0.09988489 9.78176899 0.96981162 14.0625 3.25 C18.45728704 8.3637499 18.61728114 12.45327845 18.48828125 19.0390625 C18.48499313 19.97873871 18.48170502 20.91841492 18.47831726 21.88656616 C18.46262271 24.88318464 18.41865925 27.87867294 18.375 30.875 C18.3634986 32.86587615 18.35371641 34.85676301 18.34570312 36.84765625 C18.17564312 64.78226498 18.17564312 64.78226498 14.0625 69.25 C10.04330389 71.03630938 6.43792004 71.91582479 2.0625 71.25 C-1.71331804 67.68394963 -3.83804517 63.43782863 -4.00195312 58.18408203 C-3.90739618 55.74188628 -3.74532225 53.31217181 -3.5625 50.875 C-3.05526982 42.61883064 -2.81625833 34.39707568 -2.8125 26.125 C-2.80814941 25.08811035 -2.80379883 24.0512207 -2.79931641 22.98291016 C-2.80108887 22.01659668 -2.80286133 21.0502832 -2.8046875 20.0546875 C-2.80581543 19.19858887 -2.80694336 18.34249023 -2.80810547 17.46044922 C-2.851599 15.07395542 -2.851599 15.07395542 -3.9375 12.25 C-4.03088218 10.37686336 -4.06744843 8.50045638 -4.0625 6.625 C-4.06507812 5.64273438 -4.06765625 4.66046875 -4.0703125 3.6484375 C-3.87446957 0.11174458 -3.5874336 0.3053135 0 0 Z " fill="#565656" transform="translate(116.9375,137.75)"/>
<path d="M0 0 C5.85059494 0.27945831 9.92999289 0.82821752 14.91015625 4.05859375 C17.58068296 8.01492961 17.21069043 11.93164528 16.59765625 16.55859375 C15.05537159 20.67135284 14.26094218 22.11640313 10.59765625 24.55859375 C4.92670505 25.39873467 0.1808707 25.62421886 -4.65234375 22.37109375 C-7.72790484 17.55617039 -7.38597338 10.97873217 -6.40234375 5.55859375 C-3.56148753 0.82811824 -3.56148753 0.82811824 0 0 Z " fill="#565656" transform="translate(758.40234375,184.44140625)"/>
<path d="M0 0 C6.63974434 0.06856879 10.87616502 1.34339504 16.51953125 4.9609375 C19.04648621 8.90298724 18.66984085 12.85760832 18.08203125 17.3984375 C17.01953125 20.4609375 17.01953125 20.4609375 15.08203125 22.3984375 C10.13017508 23.98303147 5.83253944 23.45633579 1.0390625 21.66796875 C-2.05504725 19.66081173 -2.71606128 17.30608464 -3.55859375 13.81640625 C-5.44399544 1.13093184 -5.44399544 1.13093184 0 0 Z " fill="#585858" transform="translate(115.91796875,107.6015625)"/>
<path d="M0 0 C2 2 2 2 2.3125 4.9375 C2 8 2 8 0.76171875 9.640625 C-1.38906911 11.30021297 -2.81198582 11.54817861 -5.5 11.8125 C-6.66015625 11.94591797 -6.66015625 11.94591797 -7.84375 12.08203125 C-10 12 -10 12 -13 10 C-12.52039967 3.64529559 -12.52039967 3.64529559 -10.4375 1.0625 C-6.77126065 -0.53560433 -3.99114942 -0.32186689 0 0 Z " fill="#F7F7F7" transform="translate(237,176)"/>
<path d="M0 0 C3 1.8125 3 1.8125 5 4 C5 4.99 5 5.98 5 7 C-2.05453001 8.20443195 -8.83437211 9.28100502 -16 9 C-15.4414124 5.6908988 -14.6379547 4.2430463 -11.9375 2.25 C-7.74836361 -0.52842106 -4.9561671 -0.71944361 0 0 Z " fill="#F4F4F4" transform="translate(655,154)"/>
<path d="M0 0 C3 1.8125 3 1.8125 5 4 C5 4.99 5 5.98 5 7 C-2.05453001 8.20443195 -8.83437211 9.28100502 -16 9 C-15.4414124 5.6908988 -14.6379547 4.2430463 -11.9375 2.25 C-7.74836361 -0.52842106 -4.9561671 -0.71944361 0 0 Z " fill="#F4F4F4" transform="translate(417,154)"/>
</svg>
