<?xml version="1.0" encoding="UTF-8"?>
<svg version="1.1" xmlns="http://www.w3.org/2000/svg" width="851" height="315">
<path d="M0 0 C280.83 0 561.66 0 851 0 C851 103.95 851 207.9 851 315 C570.17 315 289.34 315 0 315 C0 211.05 0 107.1 0 0 Z " fill="#FEFEFE" transform="translate(0,0)"/>
<path d="M0 0 C4.44990872 0.41202859 6.66679474 1.84036316 10.375 4.3125 C12.0248007 7.61210141 11.75758361 11.30377884 11.9375 14.9375 C11.98068359 15.73929688 12.02386719 16.54109375 12.06835938 17.3671875 C12.17451457 19.3487511 12.27526855 21.33060271 12.375 23.3125 C17.91646058 12.55172417 17.91646058 12.55172417 22.375 1.3125 C26.90121655 1.96048399 30.39833222 2.47875921 33.9375 5.5 C35.86631868 9.27377567 36.0663617 11.09519365 35.375 15.3125 C32.04303309 22.64525929 26.88206249 28.52589119 21.375 34.3125 C22.62594158 37.83456852 23.97470594 40.31404042 26.5 43.0625 C27.11230469 43.74441406 27.72460938 44.42632812 28.35546875 45.12890625 C29.76145594 46.6491129 31.18190484 48.15601832 32.61328125 49.65234375 C33.33902344 50.42707031 34.06476563 51.20179688 34.8125 52 C35.83150391 53.05767578 35.83150391 53.05767578 36.87109375 54.13671875 C38.72509463 56.81900055 38.84666259 58.11121562 38.375 61.3125 C37.38671875 63.48046875 37.38671875 63.48046875 36.0625 65.5 C35.63324219 66.17417969 35.20398438 66.84835938 34.76171875 67.54296875 C33.375 69.3125 33.375 69.3125 30.375 71.3125 C25.92623784 71.07835462 23.62815437 69.22399889 20.375 66.3125 C18.42578125 63.5859375 18.42578125 63.5859375 16.6875 60.6875 C14.33610886 56.76115317 14.33610886 56.76115317 11.375 53.3125 C11.09785156 54.31152344 10.82070312 55.31054688 10.53515625 56.33984375 C10.16944451 57.64327791 9.80354962 58.94666069 9.4375 60.25 C9.25509766 60.90935547 9.07269531 61.56871094 8.88476562 62.24804688 C7.48828125 67.19921875 7.48828125 67.19921875 6.375 68.3125 C3.32088386 68.74614732 0.42636412 68.77127153 -2.625 68.3125 C-5.1875 66.3125 -5.1875 66.3125 -6.625 63.3125 C-6.89652583 58.04952061 -6.38210112 53.19429986 -5.55810547 48.00244141 C-3.62163813 35.69594043 -3.37137568 23.67522735 -3.56054688 11.25756836 C-3.57923828 9.97889893 -3.59792969 8.70022949 -3.6171875 7.3828125 C-3.64151855 6.23570801 -3.66584961 5.08860352 -3.69091797 3.90673828 C-3.60147619 0.38670757 -3.48720128 0.41514301 0 0 Z " fill="#565656" transform="translate(168.625,124.6875)"/>
<path d="M0 0 C1.76953125 1.3359375 1.76953125 1.3359375 3.08203125 4.7734375 C2.70533263 9.06780175 1.83681738 10.36372223 -1.23046875 13.3359375 C-4.39453125 13.97265625 -4.39453125 13.97265625 -7.85546875 14.0234375 C-12.58530383 13.84202803 -12.58530383 13.84202803 -16.23046875 16.3359375 C-15.91195105 18.44414547 -15.91195105 18.44414547 -15.23046875 20.3359375 C-14.45703125 20.50609375 -13.68359375 20.67625 -12.88671875 20.8515625 C4.08321312 24.800012 4.08321312 24.800012 8.921875 31.24609375 C11.50693914 37.61940855 10.68336338 45.89975184 8.39453125 52.2734375 C4.98082126 58.83167604 -2.34950404 63.12825167 -9.23046875 65.3359375 C-17.98877285 66.34081539 -25.15885682 65.87770844 -32.23046875 60.3359375 C-34.43310439 58.58180233 -35.15698929 57.90319893 -35.5234375 55.07421875 C-35.48863281 54.27371094 -35.45382812 53.47320312 -35.41796875 52.6484375 C-35.39089844 51.84019531 -35.36382812 51.03195313 -35.3359375 50.19921875 C-35.30113281 49.58433594 -35.26632812 48.96945313 -35.23046875 48.3359375 C-33.42578125 47.25 -33.42578125 47.25 -31.23046875 46.3359375 C-29.57230767 47.06552838 -27.91652508 47.80216567 -26.28515625 48.58984375 C-20.20813999 50.79651696 -13.10426035 49.66098001 -7.23046875 47.3359375 C-4.99190814 44.64223729 -4.99190814 44.64223729 -5.38232422 42.22802734 C-5.66221191 41.6036377 -5.94209961 40.97924805 -6.23046875 40.3359375 C-8.9743902 39.35725217 -11.53572964 38.6226621 -14.35546875 37.9609375 C-21.63870326 36.04747502 -27.16497303 34.28301335 -31.36328125 27.5078125 C-33.44198852 22.30168078 -33.1095916 16.03055127 -31.390625 10.76171875 C-25.08913041 -1.73518465 -12.57181575 -6.20884771 0 0 Z " fill="#575757" transform="translate(381.23046875,127.6640625)"/>
<path d="M0 0 C4.06156047 0.07521408 6.23983729 0.25484719 9.18847656 3.14526367 C11.35465635 6.55889444 11.53598486 8.59517107 11.609375 12.61328125 C11.64160156 13.86044922 11.67382812 15.10761719 11.70703125 16.39257812 C11.72121094 17.68615234 11.73539063 18.97972656 11.75 20.3125 C11.77964844 21.62541016 11.80929688 22.93832031 11.83984375 24.29101562 C11.91045589 27.52740535 11.96319877 30.76307811 12 34 C12.64453125 32.89527344 13.2890625 31.79054687 13.953125 30.65234375 C14.31567383 30.03093506 14.67822266 29.40952637 15.05175781 28.76928711 C16.06586116 26.87711229 16.66059348 25.12129078 17 23 C22.71658336 22.54267333 25.48649253 23.47726246 30 27 C30 33.62743583 27.0520353 36.82769347 22.71484375 41.66796875 C20.60505586 44.05464465 20.60505586 44.05464465 21 48 C22.49694092 49.83872839 22.49694092 49.83872839 24.5625 51.4375 C25.28566406 52.035625 26.00882812 52.63375 26.75390625 53.25 C29.77361263 55.60274514 32.84538775 57.83120408 36 60 C35.11184772 64.26498125 33.11198194 67.88801806 30 71 C26.7573832 71.57903871 25.11185641 71.83121373 22 71 C18.11711344 67.98605362 14.22144268 64.44288536 12 60 C11.34 60 10.68 60 10 60 C9.62875 61.0725 9.2575 62.145 8.875 63.25 C7.15483737 67.26099533 4.95946872 69.06066838 1 71 C-2.08856423 70.8284131 -2.78643048 70.21356952 -5 68 C-5.15112305 65.80444336 -5.15112305 65.80444336 -5.01171875 63.08984375 C-4.96466797 62.09919922 -4.91761719 61.10855469 -4.86914062 60.08789062 C-4.80919922 59.04826172 -4.74925781 58.00863281 -4.6875 56.9375 C-4.63916016 55.92494141 -4.59082031 54.91238281 -4.54101562 53.86914062 C-4.31871779 49.50478694 -4.05173886 45.17744413 -3.484375 40.84375 C-2.96357962 36.48840842 -2.85123093 32.13518807 -2.75390625 27.75390625 C-2.73720383 27.01136093 -2.7205014 26.26881561 -2.70329285 25.50376892 C-2.63661744 22.39689452 -2.57451727 19.29002979 -2.52319336 16.18286133 C-2.48365697 13.89377554 -2.43215402 11.6052083 -2.37890625 9.31640625 C-2.3704921 8.61125381 -2.36207794 7.90610138 -2.35340881 7.17958069 C-2.22689788 2.22689788 -2.22689788 2.22689788 0 0 Z " fill="#565656" transform="translate(240,122)"/>
<path d="M0 0 C4.22750788 0.3988215 6.09257044 1.56430818 9.3125 4.3125 C9.99365234 7.52050781 9.99365234 7.52050781 9.8984375 11.265625 C9.88994781 11.92584656 9.88145813 12.58606812 9.87271118 13.26629639 C9.8392285 15.36672053 9.76398521 17.46324547 9.6875 19.5625 C9.65739256 20.9895277 9.63001808 22.41661586 9.60546875 23.84375 C9.53946218 27.33459173 9.43598826 30.8231651 9.3125 34.3125 C12.64532578 33.55268383 12.64532578 33.55268383 14.39453125 30.02734375 C16.96797731 24.53871368 17.41530494 18.84749861 18 12.875 C18.2296411 10.70926878 18.46252938 8.54387851 18.69921875 6.37890625 C18.79420654 5.42959229 18.88919434 4.48027832 18.98706055 3.50219727 C19.3125 1.3125 19.3125 1.3125 20.3125 0.3125 C22.23828125 0.109375 22.23828125 0.109375 24.625 0.0625 C25.79482422 0.02382812 25.79482422 0.02382812 26.98828125 -0.015625 C30.03459088 0.41444224 31.16800966 1.08832611 33.3125 3.3125 C33.66919893 5.95955128 33.78026797 8.18485676 33.703125 10.82421875 C33.69746521 11.55244339 33.69180542 12.28066803 33.68597412 13.03096008 C33.66360029 15.35464498 33.61340669 17.67678207 33.5625 20 C33.54243609 21.57614959 33.52418512 23.15232337 33.5078125 24.72851562 C33.46373283 28.59043924 33.39470225 32.4512073 33.3125 36.3125 C34.3025 36.8075 34.3025 36.8075 35.3125 37.3125 C34.94982929 44.56591426 34.94982929 44.56591426 32.125 47.875 C28.58755075 49.68302962 27.06253238 49.50931885 23.3125 48.3125 C20.9375 46.75 20.9375 46.75 19.3125 45.3125 C18.76722656 45.61285156 18.22195313 45.91320312 17.66015625 46.22265625 C12.80993477 48.66849443 8.84065056 50.08623993 3.39453125 49.19921875 C-1.19564404 47.24430357 -3.53936177 42.60877646 -5.6875 38.3125 C-5.78583936 35.84244663 -5.82653081 33.40692339 -5.8125 30.9375 C-5.81636719 30.26460937 -5.82023437 29.59171875 -5.82421875 28.8984375 C-5.81421748 23.81779384 -5.81421748 23.81779384 -5.19677734 21.35571289 C-4.65941841 19.19983711 -4.49869221 17.23740666 -4.40625 15.01953125 C-4.36886719 14.22482422 -4.33148438 13.43011719 -4.29296875 12.61132812 C-4.22216004 10.94207827 -4.15185444 9.272807 -4.08203125 7.60351562 C-3.74318924 0.43525456 -3.74318924 0.43525456 0 0 Z " fill="#575757" transform="translate(486.6875,143.6875)"/>
<path d="M0 0 C3.94518897 2.33490776 6.93316803 4.66880435 8.60546875 9.05859375 C8.8388583 12.32604747 8.80765992 15.15259209 8.09375 18.3515625 C7.5132215 21.57001248 7.50995412 24.6026458 7.54296875 27.87109375 C7.55199219 29.03253906 7.56101562 30.19398438 7.5703125 31.390625 C7.58191406 32.27105469 7.59351563 33.15148437 7.60546875 34.05859375 C8.40855469 34.33058594 9.21164062 34.60257813 10.0390625 34.8828125 C12.60546875 36.05859375 12.60546875 36.05859375 13.66796875 38.87109375 C13.60546875 42.05859375 13.60546875 42.05859375 12.10546875 44.93359375 C9.60546875 47.05859375 9.60546875 47.05859375 6.04296875 47.49609375 C2.60546875 47.05859375 2.60546875 47.05859375 -0.39453125 45.05859375 C-3.35270309 45.36044802 -5.72890783 45.72578204 -8.39453125 47.05859375 C-12.98251597 47.61832789 -16.49429354 47.48323418 -20.70703125 45.49609375 C-24.49185802 42.06334388 -26.95782258 38.87511931 -27.7421875 33.81640625 C-27.9671214 28.0072437 -26.80363505 23.99600978 -23.05859375 19.4296875 C-18.01687974 14.32648918 -12.32426346 13.71856825 -5.39453125 13.05859375 C-5.39453125 12.39859375 -5.39453125 11.73859375 -5.39453125 11.05859375 C-9.92593778 10.12478414 -9.92593778 10.12478414 -14.39453125 11.05859375 C-18.01953125 11.18359375 -18.01953125 11.18359375 -21.39453125 11.05859375 C-22.39453125 10.05859375 -22.39453125 10.05859375 -22.83203125 7.24609375 C-22.39453125 4.05859375 -22.39453125 4.05859375 -19.58203125 1.74609375 C-13.50222956 -1.47262479 -6.56680202 -2.58172804 0 0 Z " fill="#575757" transform="translate(305.39453125,145.94140625)"/>
<path d="M0 0 C5.08888126 2.68846557 8.98342158 5.35634471 11.3125 10.75 C12.10593801 15.03979669 11.85002128 17.83422301 9.625 21.625 C2.92107716 25.92562975 -5.85690741 26.11421361 -13.6875 25.75 C-11.82183512 29.37793998 -11.82183512 29.37793998 -8.6875 31.75 C-6.60604396 31.84774794 -4.52124453 31.87975741 -2.4375 31.875 C-0.75914062 31.87886719 -0.75914062 31.87886719 0.953125 31.8828125 C4.15857544 31.75608539 7.16494689 31.3508965 10.3125 30.75 C11.09220297 38.7029703 11.09220297 38.7029703 8.125 42.6875 C2.40818518 46.87983086 -2.69555129 47.61333513 -9.6875 46.75 C-16.25004635 44.64223772 -20.95795295 40.7149378 -24.4375 34.75 C-27.32849434 27.81161358 -27.94855741 19.77681474 -25.5625 12.5625 C-23.21861713 7.12645241 -19.69776574 3.10474431 -14.8125 -0.1875 C-9.35834218 -2.04191366 -5.33525186 -1.80855995 0 0 Z " fill="#585858" transform="translate(584.6875,146.25)"/>
<path d="M0 0 C5.08888126 2.68846557 8.98342158 5.35634471 11.3125 10.75 C12.10593801 15.03979669 11.85002128 17.83422301 9.625 21.625 C2.92107716 25.92562975 -5.85690741 26.11421361 -13.6875 25.75 C-11.82183512 29.37793998 -11.82183512 29.37793998 -8.6875 31.75 C-6.60604396 31.84774794 -4.52124453 31.87975741 -2.4375 31.875 C-0.75914062 31.87886719 -0.75914062 31.87886719 0.953125 31.8828125 C4.15857544 31.75608539 7.16494689 31.3508965 10.3125 30.75 C11.09220297 38.7029703 11.09220297 38.7029703 8.125 42.6875 C2.40818518 46.87983086 -2.69555129 47.61333513 -9.6875 46.75 C-16.25004635 44.64223772 -20.95795295 40.7149378 -24.4375 34.75 C-27.32849434 27.81161358 -27.94855741 19.77681474 -25.5625 12.5625 C-23.21861713 7.12645241 -19.69776574 3.10474431 -14.8125 -0.1875 C-9.35834218 -2.04191366 -5.33525186 -1.80855995 0 0 Z " fill="#585858" transform="translate(423.6875,146.25)"/>
<path d="M0 0 C0.66 0.66 1.32 1.32 2 2 C1.8125 4.5 1.8125 4.5 1 7 C-2.28491373 9.18994248 -3.83095639 9.35277339 -7.6875 9.625 C-8.68136719 9.69976562 -9.67523437 9.77453125 -10.69921875 9.8515625 C-11.45847656 9.90054688 -12.21773437 9.94953125 -13 10 C-13 10.66 -13 11.32 -13 12 C-12.20335937 12.23074219 -11.40671875 12.46148437 -10.5859375 12.69921875 C2.37470802 16.68832254 2.37470802 16.68832254 6.125 22.84765625 C7.73243236 26.80165282 7.53164438 30.81500452 7 35 C4.03876325 40.55231891 -2.13433718 44.04477906 -8 46 C-15.37287641 46.60186746 -20.84293063 46.29698605 -26.8125 41.5625 C-29.66345341 37.81124551 -29.08723469 33.53620395 -29 29 C-28.40574219 29.22816406 -27.81148437 29.45632812 -27.19921875 29.69140625 C-20.44358591 32.03433957 -15.03008802 32.10931047 -8 31 C-8 29.68 -8 28.36 -8 27 C-8.556875 26.91363281 -9.11375 26.82726562 -9.6875 26.73828125 C-16.66108594 25.4542933 -22.35277649 23.14357792 -27 17.625 C-28.32931911 14.13553734 -28.45581076 11.71160189 -28 8 C-25.9074492 3.73119636 -23.39808704 0.89771744 -19.125 -1.3125 C-12.98487279 -3.29901175 -5.81631976 -2.68445527 0 0 Z " fill="#575757" transform="translate(629,147)"/>
<path d="M0 0 C1.00933594 -0.0309375 1.00933594 -0.0309375 2.0390625 -0.0625 C6.21067794 -0.09534737 8.60077629 0.30332048 11.625 3.25 C11.01605513 9.70481565 11.01605513 9.70481565 9.42578125 11.921875 C6.38081489 14.16762025 2.89500415 14.09745919 -0.78125 14.52734375 C-3.47653019 15.05023682 -3.47653019 15.05023682 -5.2265625 17.09375 C-6.98569641 20.39661367 -6.27584653 22.71096007 -5.375 26.25 C-3.79614034 28.30938216 -2.68357577 29.09571211 -0.375 30.25 C2.15432162 30.29593547 4.65992611 30.29693731 7.1875 30.25 C9.67334777 30.2040933 12.13764949 30.20301345 14.625 30.25 C15.625 31.25 15.625 31.25 15.6796875 33.140625 C15.34640013 37.51683304 15.04746351 39.71636188 12.25 43.25 C6.95811486 47.28191249 1.01799293 46.81862707 -5.375 46.25 C-11.55946831 44.54747638 -15.9087175 40.55981491 -19.375 35.25 C-22.58407863 28.78788277 -22.50486831 20.72656685 -20.7578125 13.8046875 C-16.79569933 4.86363565 -9.44998734 0.07159081 0 0 Z " fill="#565656" transform="translate(461.375,145.75)"/>
<path d="M0 0 C4.50645731 0.25035874 7.74370195 0.74370195 11 4 C11 4.66 11 5.32 11 6 C11.66386719 5.55527344 12.32773437 5.11054688 13.01171875 4.65234375 C13.89472656 4.08644531 14.77773438 3.52054688 15.6875 2.9375 C16.55761719 2.36902344 17.42773438 1.80054688 18.32421875 1.21484375 C21.42822437 -0.19442012 22.8040576 -0.00772958 26 1 C25.72517139 7.59588668 23.18088475 11.03519936 19 16 C13.85790165 22.2539034 13.75058036 27.27828421 13.5703125 35.1328125 C13.35872308 40.44018039 12.37930142 44.24139715 10 49 C6.21348117 49.29698187 3.70274497 49.36593764 0.29663086 47.59228516 C-3.13796485 43.71554048 -2.66582558 40.28936585 -2.55859375 35.2734375 C-2.55626236 34.32941071 -2.55393097 33.38538391 -2.55152893 32.41275024 C-2.54179722 30.42058251 -2.52002336 28.42844222 -2.48706055 26.43652344 C-2.43756707 23.37914321 -2.42557526 20.32337 -2.41992188 17.265625 C-2.40583926 15.33071196 -2.38963607 13.39581294 -2.37109375 11.4609375 C-2.36573105 10.54323578 -2.36036835 9.62553406 -2.35484314 8.68002319 C-2.33885574 7.83219269 -2.32286835 6.98436218 -2.30639648 6.11083984 C-2.29575668 5.36345551 -2.28511688 4.61607117 -2.27415466 3.84603882 C-2 2 -2 2 0 0 Z " fill="#585858" transform="translate(529,145)"/>
<path d="M0 0 C4.68331427 0.35345768 7.99551156 1.93301156 11.3125 5.25 C11.52478452 8.15575046 11.61646095 10.96373929 11.61328125 13.87109375 C11.61756638 14.72679459 11.6218515 15.58249542 11.62626648 16.46412659 C11.63201468 18.27563593 11.63250644 20.08716836 11.62817383 21.89868164 C11.6250164 24.67308905 11.64845741 27.44642786 11.67382812 30.22070312 C11.67610129 31.97916532 11.67680453 33.73763039 11.67578125 35.49609375 C11.684991 36.32741318 11.69420074 37.1587326 11.70368958 38.01524353 C11.65692119 43.82771772 11.65692119 43.82771772 9.91691589 45.96107483 C7.06246917 48.25422603 3.88033354 47.95755463 0.3125 48.25 C-2.69054527 44.09326755 -3.03496068 41.19279926 -2.9453125 36.11328125 C-2.93538773 35.0940583 -2.93538773 35.0940583 -2.92526245 34.054245 C-2.9019783 31.88985712 -2.85838362 29.7265165 -2.8125 27.5625 C-2.76570003 24.72533169 -2.72805306 21.88814446 -2.6953125 19.05078125 C-2.68590637 18.37121368 -2.67650024 17.69164612 -2.66680908 16.9914856 C-2.62561848 12.25377108 -2.91845209 7.65277751 -3.56201172 2.96166992 C-3.62412842 2.11439331 -3.62412842 2.11439331 -3.6875 1.25 C-2.6875 0.25 -2.6875 0.25 0 0 Z " fill="#575757" transform="translate(217.6875,144.75)"/>
<path d="M0 0 C4.22787401 -0.41585646 6.9570289 -0.37724487 10.9375 1.0625 C13 3 13 3 14 6.375 C14 10.34082359 13.37351604 11.89617134 11 15 C9.42077594 16.57922406 7.80556126 16.207659 5.625 16.25 C4.83351563 16.27578125 4.04203125 16.3015625 3.2265625 16.328125 C1 16 1 16 -0.76953125 14.796875 C-2.39755732 12.41944011 -2.36785738 10.86155058 -2.3125 8 C-2.30863281 7.13375 -2.30476562 6.2675 -2.30078125 5.375 C-2 3 -2 3 0 0 Z " fill="#575757" transform="translate(648,177)"/>
<path d="M0 0 C8.63502756 -0.4390692 8.63502756 -0.4390692 13 3 C14.40457737 5.80915474 14.24895157 7.88810534 14 11 C13.0625 13.4375 13.0625 13.4375 11 15 C7.81455526 15.29659634 5.04688255 14.97023634 2 14 C-0.81832633 11.09626984 -0.97664206 9.34452956 -1.25 5.3125 C-1 2 -1 2 0 0 Z " fill="#595959" transform="translate(215,125)"/>
<path d="M0 0 C1.093125 0.0825 2.18625 0.165 3.3125 0.25 C3.5 3.125 3.5 3.125 3.3125 6.25 C0.08458445 8.4019437 -0.97150809 8.45086443 -4.6875 8.25 C-5.3475 6.93 -6.0075 5.61 -6.6875 4.25 C-4.79150483 0.68106792 -4.16790733 0.28256999 0 0 Z " fill="#F4F4F4" transform="translate(295.6875,170.75)"/>
<path d="M0 0 C0.99 0.66 1.98 1.32 3 2 C3 2.99 3 3.98 3 5 C-1.62 5.33 -6.24 5.66 -11 6 C-8.18642072 0.37284143 -6.06686868 -0.50557239 0 0 Z " fill="#F2F2F2" transform="translate(581,156)"/>
<path d="M0 0 C0.99 0.66 1.98 1.32 3 2 C3 2.99 3 3.98 3 5 C-1.62 5.33 -6.24 5.66 -11 6 C-8.18642072 0.37284143 -6.06686868 -0.50557239 0 0 Z " fill="#F2F2F2" transform="translate(420,156)"/>
</svg>
