<?xml version="1.0" standalone="no"?>
<!DOCTYPE svg PUBLIC "-//W3C//DTD SVG 20010904//EN"
 "http://www.w3.org/TR/2001/REC-SVG-20010904/DTD/svg10.dtd">
<svg version="1.0" xmlns="http://www.w3.org/2000/svg"
 width="1050.000000pt" height="600.000000pt" viewBox="0 0 1050.000000 600.000000"
 preserveAspectRatio="xMidYMid meet">

<g transform="translate(0.000000,600.000000) scale(0.100000,-0.100000)"
fill="#000000" stroke="none">
<path d="M4865 5985 c-466 -53 -911 -205 -1293 -444 -771 -481 -1281 -1289
-1387 -2197 -19 -167 -20 -519 0 -684 105 -893 584 -1671 1335 -2168 134 -89
409 -231 562 -290 486 -187 1045 -245 1559 -162 1453 236 2519 1488 2519 2960
0 801 -315 1558 -884 2125 -472 470 -1071 763 -1744 851 -169 22 -507 26 -667
9z m-135 -2219 l5 -70 64 72 c34 40 69 72 77 72 21 0 18 -7 -31 -64 -25 -29
-45 -56 -45 -60 0 -4 19 -33 43 -64 60 -78 61 -82 39 -82 -11 0 -35 23 -62 60
-24 33 -46 60 -48 60 -3 0 -14 -7 -24 -17 -12 -11 -18 -30 -18 -60 0 -36 -3
-43 -20 -43 -19 0 -20 7 -20 136 0 124 2 135 18 132 14 -3 18 -17 22 -72z
m298 -64 c2 -127 2 -132 -18 -132 -19 0 -20 6 -20 136 0 124 2 135 18 132 15
-3 17 -19 20 -136z m152 66 l1 -73 69 73 c41 43 76 72 85 70 12 -2 2 -18 -35
-60 -32 -36 -49 -62 -44 -70 4 -7 27 -39 51 -70 48 -64 50 -68 26 -68 -10 0
-36 25 -58 56 -49 68 -52 70 -76 48 -13 -12 -19 -30 -19 -61 0 -36 -3 -43 -20
-43 -19 0 -20 7 -20 128 0 130 2 142 27 142 10 0 13 -19 13 -72z m427 -59 c28
-68 52 -127 52 -131 1 -5 -7 -8 -17 -8 -13 0 -24 13 -35 40 -15 40 -16 40 -70
40 l-54 0 -13 -40 c-9 -27 -19 -40 -32 -40 -10 0 -18 2 -18 5 0 8 80 207 96
237 8 16 21 28 27 25 7 -2 35 -59 64 -128z m-2841 -300 c-70 -10 -113 -34
-143 -79 -27 -39 -29 -67 -7 -98 21 -31 75 -56 234 -112 232 -81 317 -136 366
-236 23 -48 26 -63 22 -124 -8 -114 -61 -181 -183 -236 -30 -13 -81 -26 -113
-29 -51 -4 -53 -4 -19 5 79 21 121 54 137 111 20 67 -15 90 -229 156 -168 51
-245 88 -308 146 -64 59 -93 124 -93 213 0 113 51 193 157 248 46 23 139 44
193 44 43 0 43 -1 -14 -9z m342 -4 c4 -4 8 -55 10 -113 l3 -107 -40 61 c-62
93 -129 143 -221 165 -22 5 17 7 103 4 76 -2 142 -6 145 -10z m737 -189 c91
-45 156 -119 195 -221 l10 -25 -145 0 -145 0 0 110 c0 104 -1 112 -25 135 -18
19 -35 25 -65 25 -30 0 -47 -6 -65 -25 -24 -23 -25 -28 -25 -172 0 -168 8
-205 53 -265 90 -118 272 -135 375 -36 40 40 41 25 1 -35 -39 -60 -99 -111
-165 -142 -235 -111 -481 -2 -541 240 -45 182 64 371 250 431 27 9 77 13 137
11 82 -2 104 -7 155 -31z m860 1 c103 -37 126 -49 121 -64 -6 -15 -190 -282
-193 -279 -1 0 9 39 23 85 27 94 30 157 10 204 -25 59 -71 82 -130 66 -75 -21
-127 -96 -146 -212 -30 -188 83 -338 255 -339 70 0 117 17 170 63 l38 33 -22
-43 c-34 -66 -103 -128 -189 -169 -72 -35 -83 -37 -172 -37 -82 0 -103 4 -152
27 -79 37 -142 98 -181 177 -29 59 -32 74 -32 156 0 78 4 97 28 147 47 97 132
168 242 205 65 21 244 11 330 -20z m495 7 c-6 -14 -10 -142 -10 -290 0 -251 1
-265 20 -284 24 -24 39 -25 84 -6 55 23 61 51 61 311 0 127 -3 245 -7 263 l-7
32 165 0 c160 0 164 -1 154 -19 -11 -21 -15 -607 -4 -635 3 -9 12 -16 20 -16
28 0 13 -21 -28 -40 -75 -34 -168 -21 -227 33 -13 12 -34 44 -46 70 -22 47
-23 48 -30 20 -11 -48 -55 -94 -112 -120 -109 -50 -234 -12 -298 91 l-30 49
-5 271 c-3 149 -9 277 -13 284 -6 9 27 12 157 12 l166 0 -10 -26z m1701 -7
c30 -15 77 -48 104 -74 44 -44 95 -129 95 -160 0 -10 -35 -13 -140 -13 l-140
0 0 109 c0 101 -2 110 -25 135 -33 35 -92 36 -132 2 l-28 -24 1 -154 c0 -138
2 -158 23 -206 44 -98 143 -159 253 -155 59 3 104 21 153 64 l38 33 -22 -43
c-34 -66 -103 -128 -189 -169 -72 -35 -83 -37 -172 -37 -82 0 -103 4 -152 27
-79 37 -142 98 -181 177 -29 59 -32 74 -32 156 0 77 4 98 27 147 46 98 133
175 238 209 14 5 70 7 125 6 85 -3 109 -7 156 -30z m557 22 c-83 -12 -138 -44
-138 -80 0 -32 65 -68 240 -134 207 -78 274 -112 334 -172 54 -55 71 -98 61
-160 -8 -53 -65 -123 -127 -154 -53 -27 -153 -49 -218 -47 l-55 1 71 7 c74 8
131 31 141 56 10 28 -16 63 -64 87 -26 14 -114 47 -195 75 -176 61 -255 100
-304 148 -85 86 -87 200 -3 283 57 56 175 100 269 99 44 0 44 -1 -12 -9z m366
-21 c3 -18 7 -64 9 -103 5 -68 4 -69 -12 -45 -56 85 -149 153 -233 169 -33 7
-10 9 94 10 l137 1 5 -32z m-1942 -28 c33 0 80 8 108 19 l50 19 0 -66 0 -67
26 43 c29 48 85 82 136 82 64 0 129 -50 143 -110 5 -23 -1 -28 -80 -68 -47
-23 -89 -42 -94 -42 -5 0 -11 16 -14 36 -11 69 -69 98 -101 52 -14 -19 -16
-62 -16 -270 0 -136 4 -258 10 -272 l10 -26 -166 0 c-155 0 -166 1 -158 18 5
9 10 169 12 354 l3 338 37 -20 c24 -13 56 -20 94 -20z m-3379 -444 c-12 -115
45 -192 172 -232 22 -7 33 -13 24 -13 -52 -2 -222 80 -293 141 l-39 34 68 62
c37 34 69 62 71 62 1 0 0 -24 -3 -54z m4667 -41 c44 -91 176 -184 292 -205
l53 -9 -65 5 c-62 4 -315 55 -325 65 -4 5 16 189 21 189 1 0 12 -20 24 -45z
m-4402 -212 c-10 -2 -26 -2 -35 0 -10 3 -2 5 17 5 19 0 27 -2 18 -5z m100 -10
c-10 -2 -28 -2 -40 0 -13 2 -5 4 17 4 22 1 32 -1 23 -4z"/>
<path d="M5516 3737 c-9 -23 -16 -46 -16 -50 0 -4 18 -7 41 -7 29 0 40 4 36
13 -2 6 -10 29 -18 50 -7 20 -16 37 -20 37 -3 0 -14 -19 -23 -43z"/>
</g>
</svg>
