<?xml version="1.0" standalone="no"?>
<!DOCTYPE svg PUBLIC "-//W3C//DTD SVG 20010904//EN"
 "http://www.w3.org/TR/2001/REC-SVG-20010904/DTD/svg10.dtd">
<svg version="1.0" xmlns="http://www.w3.org/2000/svg"
 width="220.000000pt" height="217.000000pt" viewBox="0 0 220.000000 217.000000"
 preserveAspectRatio="xMidYMid meet">

<g transform="translate(0.000000,217.000000) scale(0.100000,-0.100000)"
fill="#000000" stroke="none">
<path d="M0 1085 l0 -1085 1100 0 1100 0 0 1085 0 1085 -1100 0 -1100 0 0
-1085z m1524 530 c10 -11 25 -30 34 -43 14 -21 14 -25 -3 -40 -10 -9 -15 -12
-11 -5 4 7 -4 19 -19 29 -31 20 -26 31 7 13 22 -12 22 -11 8 7 -8 10 -30 32
-47 48 -18 16 -33 33 -33 39 0 10 30 -12 64 -48z m322 1 l-25 -47 22 6 c19 5
19 3 -6 -15 -15 -12 -25 -26 -21 -31 3 -5 1 -9 -5 -9 -22 0 -20 22 5 72 31 59
45 80 51 75 2 -3 -7 -26 -21 -51z m-213 -151 c7 -18 -6 -27 -26 -19 -18 7 -11
34 8 34 7 0 15 -7 18 -15z m133 -2 c-3 -20 -22 -28 -31 -14 -8 14 3 31 20 31
7 0 12 -8 11 -17z m-133 -94 c14 -15 22 -17 32 -9 7 6 25 8 39 4 20 -5 26 -2
26 10 0 9 15 22 34 30 18 8 37 19 40 25 27 43 36 -54 10 -104 -8 -16 -31 -65
-50 -108 -43 -99 -129 -190 -189 -202 -74 -14 -115 -14 -115 -1 0 16 49 83 84
115 23 22 26 32 26 93 0 50 -5 76 -20 100 -19 31 -27 97 -14 110 7 7 70 -34
97 -63z m-180 12 c-5 -40 -1 -57 16 -87 12 -20 20 -39 17 -41 -7 -8 -56 83
-56 105 0 23 17 72 24 72 3 0 2 -22 -1 -49z m-423 -141 c61 -66 69 -71 130
-84 53 -11 58 -14 29 -15 -43 -1 -97 16 -123 38 -31 27 -118 131 -110 131 5 0
38 -31 74 -70z m-210 -105 c0 -11 12 -38 25 -60 29 -47 33 -68 6 -34 -30 40
-51 86 -51 116 0 22 2 25 10 13 5 -8 10 -24 10 -35z m394 -67 c-3 -5 -20 -8
-38 -8 -37 0 -42 -5 -77 -70 -13 -25 -34 -57 -48 -72 -31 -34 -25 -35 30 -3
79 45 104 28 44 -29 -44 -41 -46 -81 -9 -125 34 -41 26 -66 -19 -57 -43 8
-130 101 -124 134 6 31 -6 28 -38 -10 -25 -29 -27 -37 -21 -85 6 -52 5 -53
-19 -53 -41 0 -85 58 -85 112 0 25 51 107 67 108 6 0 18 -8 25 -18 9 -12 26
-18 52 -18 50 0 91 39 130 122 15 32 33 64 40 69 16 12 97 14 90 3z m181 -145
c-4 -10 -23 -64 -43 -120 -34 -99 -35 -104 -18 -122 10 -11 15 -25 11 -30 -9
-15 -68 -14 -90 3 -18 13 -18 17 6 142 24 128 25 129 51 126 15 -1 29 2 33 8
3 5 18 10 32 10 20 0 24 -4 18 -17z m-905 -8 c15 -8 53 -14 93 -15 70 0 107
-11 107 -33 0 -17 -177 -135 -230 -153 -53 -18 -93 -11 -120 23 -35 45 -20 93
49 156 44 40 63 44 101 22z m1050 0 c7 -8 21 -15 31 -15 15 0 19 -7 19 -38 0
-59 22 -156 37 -165 21 -13 15 -44 -9 -50 -12 -4 -36 1 -53 9 -30 14 -33 19
-45 102 -7 48 -16 104 -20 124 -4 20 -5 39 -2 43 10 10 29 5 42 -10z"/>
</g>
</svg>
